<svg width="302" height="262" viewBox="0 0 302 262" fill="none" xmlns="http://www.w3.org/2000/svg">
<path d="M59.1546 184.194H40.4742V203.248H20.2371V222.303H40.4742V241.358H77.8351V260.412H96.5155V222.303H59.1546V184.194Z" fill="white"/>
<path d="M233.505 182.606H270.866V203.248H252.186V223.891H270.866V242.945H233.505V262H214.825V242.945H196.144V223.891H233.505V182.606Z" fill="white"/>
<path d="M57.5979 125.442H38.9175V144.497H20.2371V163.552H38.9175V144.497H57.5979V125.442Z" fill="white"/>
<path d="M165.01 250.885V231.83H146.33V212.776H127.649V231.83H146.33V250.885H165.01Z" fill="white"/>
<path d="M191.474 44.4606V25.4061L172.794 25.4061V6.35151L154.113 6.35151V25.4061H172.794V44.4606H191.474Z" fill="white"/>
<path d="M225.722 0H244.402V38.1091H263.082V57.1636H281.763V136.558H302V155.612H281.763V173.079H263.082V115.915H244.402V136.558H225.722V96.8606H244.402V76.2182H225.722V0Z" fill="white"/>
<path d="M42.0309 6.35152L42.0309 25.4061H0V46.0485H23.3505V104.8H42.0309V46.0485L98.0722 46.0485V25.4061L118.309 25.4061V6.35152H79.3918V25.4061L60.7113 25.4061V6.35152L42.0309 6.35152Z" fill="white"/>
<path d="M175.907 93.6849H118.309V152.436H175.907V93.6849Z" fill="white"/>
<path fill-rule="evenodd" clip-rule="evenodd" d="M79.3918 55.5758H213.268V192.133H79.3918V55.5758ZM94.9588 71.4545H197.701V176.255H94.9588V71.4545Z" fill="white"/>
</svg>
