<svg width="219" height="281" viewBox="0 0 219 281" fill="none" xmlns="http://www.w3.org/2000/svg">
<g clip-path="url(#clip0)">
<path d="M180.688 138.66L133.493 139.806L133.063 152.256L180.688 138.66Z" fill="#E4E2E7"/>
<path d="M29.8084 19.277L34.8847 21.563L43.805 27.656L54.7815 81.7541L54.2889 139.239L48.7058 146.059L42.7766 149.435L37.4068 156.862L38.0366 163.127L37.3643 166.672L35.4068 173.129L26.509 167.761C26.509 167.761 24.6991 165.267 23.8864 162.458C23.1321 159.852 22.951 157.683 22.951 157.683L21.8817 149.444C21.8817 149.444 20.1125 140.746 19.4863 136.997C18.626 131.846 16.1096 124.06 16.1096 124.06L13.9038 115.897L11.629 107.041C11.629 107.041 10.7253 102.294 10.6224 99.7935C10.5412 97.8187 10.3079 93.8983 10.3079 93.8983L10.3429 90.0831L10.9606 82.3696C10.9606 82.3696 12.6875 78.7128 11.7882 74.1859C10.761 69.0157 9.02246 63.0871 9.02246 63.0871L5.84621 52.2761L3.22109 40.0186C3.22109 40.0186 1.21575 33.5409 1.63274 31.135C2.00629 28.9798 4.52763 25.28 4.52763 25.28C4.52763 25.28 6.82523 22.8954 9.00947 21.3621C11.6937 19.4777 15.2058 18.6447 15.2058 18.6447L24.1164 17.7515L29.8084 19.277Z" fill="#46474B"/>
<path d="M37.6226 15.0066L42.7266 17.2773L51.6936 23.3343L62.6787 77.1853L63.5305 141.094L56.9808 145.229L50.9823 147.917L45.1223 151.982L40.1601 158.045L38.6451 163.762L36.9917 168.101L31.8186 165.141C31.8186 165.141 30.6303 161.877 29.8158 159.082C29.0597 156.487 29.1236 152.196 29.1236 152.196L28.0853 141.865C28.0853 141.865 27.7423 135.956 27.1163 132.224C26.2561 127.097 23.7329 119.347 23.7329 119.347L21.5225 111.222L19.2435 102.407C19.2435 102.407 17.1352 96.7717 17.0344 94.2818C16.9547 92.3157 17.9283 89.3229 17.9283 89.3229L18.9613 85.7415C18.9613 85.7415 20.194 83.1659 20.6148 81.4021C21.6811 76.9324 20.338 74.2011 19.438 69.6949C18.4101 64.5483 15.3651 56.887 15.3651 56.887L12.1889 46.0758L9.63237 34.5069C9.63237 34.5069 8.51817 30.0162 8.94016 27.6203C9.31817 25.4742 11.2139 22.5233 11.2139 22.5233C11.2139 22.5233 13.3576 18.7476 15.5564 17.2188C18.2584 15.3398 22.934 14.3923 22.934 14.3923L31.8984 13.4937L37.6226 15.0066Z" fill="url(#paint0_linear)" stroke="black"/>
<path d="M46.4336 197.946V279.616H204.446L205.139 166.801V160.572V157.111L204.446 151.574L203.06 147.421L200.288 143.269L196.13 139.808L191.279 138.424H184.348L74.8481 147.421L66.5317 148.806L60.9874 151.574L56.1361 155.727L51.9779 161.264L49.2057 166.801L47.1266 172.338L46.4336 177.875V188.948V197.946Z" fill="#FAF9FF"/>
<path d="M34.6529 163.34C33.9538 165.456 33.7613 166.703 33.2669 168.877C31.3166 177.449 31.7621 188.202 31.8802 197.946C32.0528 212.171 32.5738 224.246 32.5738 224.246V279.616H45.7415V206.251V193.101V182.719V173.722C45.7415 170.478 45.171 168.61 45.7415 165.416C46.298 162.302 47.2582 160.707 48.5137 157.803C49.7129 155.029 50.7414 153.639 51.9789 150.882C53.1709 148.225 54.751 143.96 54.751 143.96C54.751 143.96 50.3382 144.755 47.8207 146.037C45.4093 147.265 44.1901 148.278 42.2763 150.19C40.3626 152.101 39.5219 153.416 38.1181 155.726C36.4218 158.518 35.6774 160.238 34.6529 163.34Z" fill="#E4E2E7"/>
<path d="M46.4336 197.946V279.616H204.446L205.139 177.182L46.4336 197.946Z" fill="#EAE9F1"/>
<path d="M46.4336 279.616V193.793" stroke="#90858B"/>
<path d="M20.791 279.616H219" stroke="#161A19" stroke-width="0.5"/>
<path d="M143.459 185.488L204.446 177.268C204.446 177.268 205.785 162.101 203.753 152.734C203.565 151.863 203.473 151.371 203.231 150.514C202.946 149.502 202.769 148.936 202.367 147.964C201.544 145.973 200.956 144.865 199.595 143.194C198.636 142.017 198.077 141.324 196.823 140.468C195.826 139.789 195.186 139.513 194.051 139.105C193.001 138.728 192.38 138.593 191.278 138.424C189.406 138.137 186.427 138.424 186.427 138.424L137.915 143.194" stroke="#DEDEE0"/>
<path d="M31.8799 278.924V254.007L32.5729 168.877" stroke="#D2D5DC"/>
<path d="M81.0854 215.941C103.285 215.941 121.282 197.039 121.282 173.722C121.282 150.405 103.285 131.502 81.0854 131.502C58.8856 131.502 40.8892 150.405 40.8892 173.722C40.8892 197.039 58.8856 215.941 81.0854 215.941Z" fill="#5F5C63"/>
<path d="M87.3226 214.557C106.078 214.557 121.281 196.584 121.281 174.414C121.281 152.244 106.078 134.271 87.3226 134.271C68.5677 134.271 53.3638 152.244 53.3638 174.414C53.3638 196.584 68.5677 214.557 87.3226 214.557Z" fill="#100A0E"/>
<path d="M64.0293 2.76855C64.0293 2.76855 59.9329 4.44809 57.7919 6.22915C55.8746 7.82405 55.0384 9.01444 53.6336 11.074C51.9301 13.5715 50.1685 17.9952 50.1685 17.9952V67.1355C50.1685 67.1355 49.7948 70.5426 50.1685 72.6725C50.5674 74.9472 51.5969 75.9934 52.2475 78.2094C53.0241 80.8544 53.6336 85.1306 53.6336 85.1306L52.2475 150.19C52.2475 150.19 50.1689 154.302 49.2057 156.419C48.1735 158.688 47.7017 160.223 47.1266 162.648L46.4336 168.185V173.722V178.567L47.1266 183.411L48.7837 188.948L51.2849 193.793L54.057 198.638L58.2152 203.483L62.3735 207.636L68.6108 212.48L72.076 214.557" stroke="#3E3D42" stroke-width="0.3"/>
<path d="M18.019 26.3007L30.4937 34.6061L22.8703 28.3771L25.6425 26.3007L28.4146 24.2243L31.1868 23.5322H33.2659L36.038 24.2243L38.1171 25.6086" stroke="#908F94" stroke-width="1.3"/>
<path d="M99.8666 11.9056C100.847 13.4317 101.946 16.0583 101.946 16.0583V66.5829C101.946 66.5829 101.811 68.2786 101.946 69.3514C102.158 71.0476 102.823 71.8718 103.332 73.5041C103.917 75.3831 104.471 76.3968 104.718 78.3489C104.921 79.958 104.718 80.88 104.718 82.5016V133.718H94.3223H88.778H83.9268C82.8442 133.718 82.2346 133.644 81.1546 133.718C78.0761 133.93 76.3846 134.621 73.5312 135.795C71.8524 136.485 70.9011 136.892 69.373 137.871C67.5938 139.011 66.7652 139.897 65.2147 141.332C64.0917 142.372 63.4832 142.979 62.4426 144.1C61.0059 145.648 60.5467 146.838 58.9774 148.253C57.9728 149.158 56.2052 150.33 56.2052 150.33H48.5818V148.253V79.7332C48.5818 79.7332 48.0177 77.4747 47.1957 76.2726C44.6785 72.5915 36.1071 73.5041 36.1071 73.5041C36.1071 73.5041 32.1418 73.15 29.8698 72.1199C28.0927 71.3142 27.1708 70.6458 25.7116 69.3514C24.1312 67.9496 22.2464 65.1987 22.2464 65.1987C22.2464 65.1987 21.7561 63.1014 21.5533 61.7381C20.9569 57.7278 20.6456 54.7131 20.8575 50.6642C21.0135 47.6828 21.1206 46.5087 22.2464 43.743C22.8407 42.2831 24.3255 40.2824 24.3255 40.2824C24.3255 40.2824 35.818 23.9799 45.1166 15.3662C47.226 13.4123 48.4697 12.3832 50.6609 10.5214C52.271 9.15347 53.1227 8.3202 54.8192 7.0608C56.3854 5.898 57.2065 5.11174 58.9774 4.29232C60.7651 3.46508 61.9175 2.70658 63.8257 2.21597C66.2421 1.59465 67.5781 1.71497 70.066 1.52385C71.4152 1.4202 72.178 1.52385 73.5312 1.52385H76.9935C79.1585 1.52385 81.0915 1.20981 83.2337 1.52385C85.1832 1.80963 86.2275 2.25156 88.085 2.90809C90.0281 3.59488 91.1808 3.90578 92.9363 4.98444C94.4123 5.89135 95.1518 6.55385 96.4014 7.75292C97.9257 9.21549 98.7253 10.1288 99.8666 11.9056Z" fill="#514E55" stroke="#514E56" stroke-width="0.2"/>
<path d="M99.8667 11.9056C100.847 13.4317 101.946 16.0583 101.946 16.0583V66.5829C101.946 66.5829 101.811 68.2786 101.946 69.3514C102.158 71.0476 102.823 71.8718 103.332 73.5041C103.917 75.3831 104.471 76.3967 104.718 78.3489C104.921 79.958 104.718 80.88 104.718 82.5016V133.718H94.3223H88.778H83.9268C82.8443 133.718 82.2347 133.644 81.1546 133.718C78.076 133.93 76.3846 134.621 73.5312 135.795C71.8524 136.485 70.9011 136.892 69.373 137.871C67.5938 139.011 66.7652 139.897 65.2148 141.332C64.0918 142.372 63.4833 142.979 62.4426 144.1L59.6014 148.113V79.5936C59.6014 79.5936 58.867 76.6058 58.2154 74.7488C57.7334 73.3751 57.4526 72.6039 56.8293 71.2882C55.9164 69.3609 54.0571 66.5829 54.0571 66.5829V16.0583L58.2154 11.9056C59.8393 10.2839 60.586 9.19265 62.3736 7.75291C63.8927 6.52937 64.8416 5.95894 66.5318 4.98444C68.1042 4.0779 68.991 3.54723 70.69 2.90809C73.0487 2.02082 74.8282 1.52385 76.9934 1.52385C79.1585 1.52385 81.0916 1.20981 83.2337 1.52385C85.1833 1.80963 86.2275 2.25156 88.085 2.90809C90.0282 3.59488 91.1807 3.90578 92.9363 4.98444C94.4123 5.89135 95.1518 6.55385 96.4015 7.75291C97.9257 9.21549 98.7252 10.1288 99.8667 11.9056Z" fill="#4C4A4F"/>
<path d="M32.5729 60.9063C35.2522 60.9063 37.4242 57.4977 37.4242 53.293C37.4242 49.0883 35.2522 45.6797 32.5729 45.6797C29.8937 45.6797 27.7217 49.0883 27.7217 53.293C27.7217 57.4977 29.8937 60.9063 32.5729 60.9063Z" fill="#FFFFF3"/>
<path d="M34.652 58.1379C36.1831 58.1379 37.4242 56.2787 37.4242 53.9852C37.4242 51.6918 36.1831 49.8325 34.652 49.8325C33.121 49.8325 31.8799 51.6918 31.8799 53.9852C31.8799 56.2787 33.121 58.1379 34.652 58.1379Z" fill="#383934"/>
<path d="M78.3134 52.6008C87.1168 52.6008 94.2533 42.9948 94.2533 31.1451C94.2533 19.2955 87.1168 9.68945 78.3134 9.68945C69.5101 9.68945 62.3735 19.2955 62.3735 31.1451C62.3735 42.9948 69.5101 52.6008 78.3134 52.6008Z" fill="#535059"/>
<path d="M80.3925 52.6008C88.0476 52.6008 94.2533 42.9948 94.2533 31.1451C94.2533 19.2955 88.0476 9.68945 80.3925 9.68945C72.7374 9.68945 66.5317 19.2955 66.5317 31.1451C66.5317 42.9948 72.7374 52.6008 80.3925 52.6008Z" fill="#47444B"/>
<path d="M101.877 68.5195L54.75 67.1353C54.75 67.1353 56.0906 69.0537 56.8291 70.5958C57.6712 72.3542 57.9324 74.4449 58.9082 76.1328C59.816 77.7031 59.0392 77.8693 59.6013 79.5934C60.7743 83.1916 60.2943 88.5909 60.2943 88.5909H104.649V78.9013C104.649 77.2795 104.308 77.0238 103.956 75.4407C103.562 73.6707 103.382 72.9097 102.57 71.288C102.028 70.2069 101.877 68.5195 101.877 68.5195Z" fill="url(#paint1_linear)"/>
<path d="M59.6014 147.421V80.1462L58.2154 75.3014L56.8293 71.8408L54.0571 67.1355C54.0571 67.1355 54.0571 36.3419 54.0571 16.6109C54.0571 16.6109 54.4057 15.7236 54.7502 15.2267C55.1859 14.5981 55.595 14.383 56.1362 13.8424C56.6775 13.3019 56.954 12.9704 57.5223 12.4582C58.5269 11.5528 59.1428 11.0915 60.2945 10.3818" stroke="black"/>
<path d="M97.0418 227.404C120.399 229.916 141.873 208.402 145.004 179.353C148.136 150.304 131.74 124.719 108.383 122.207C85.0252 119.696 63.5516 141.209 60.42 170.259C57.2883 199.308 73.6844 224.893 97.0418 227.404Z" fill="#388CD2"/>
<path d="M104.515 227.533C124.345 229.241 142.403 207.651 144.85 179.311C147.297 150.971 133.206 126.612 113.376 124.905C93.5463 123.197 75.4876 144.787 73.0407 173.127C70.5939 201.467 84.6854 225.826 104.515 227.533Z" fill="#297DC3"/>
<path d="M105.728 218.581C122.399 219.894 137.413 201.999 139.261 178.61C141.109 155.221 129.092 135.196 112.42 133.882C95.7485 132.568 80.7352 150.463 78.887 173.852C77.0389 197.241 89.0558 217.267 105.728 218.581Z" fill="#161A19"/>
<path d="M93.5609 164.032C93.5609 164.032 95.0904 160.979 96.333 159.187C97.3199 157.764 97.935 157.003 99.1052 155.727C99.8805 154.881 100.256 154.325 101.184 153.65C102.163 152.939 102.775 152.528 103.956 152.266C105.013 152.032 105.654 152.136 106.729 152.266C107.836 152.4 108.724 152.845 109.501 152.958C110.278 153.072 111.748 154.223 112.966 155.035C114.184 155.846 114.376 156.628 115.045 157.803C115.765 159.068 116.031 159.864 116.431 161.264C117.03 163.359 116.998 164.625 117.124 166.801C117.234 168.69 117.124 169.753 117.124 171.645C117.124 174.078 117.364 175.453 117.124 177.875C116.962 179.511 116.785 180.422 116.431 182.027C116.008 183.949 115.742 185.031 115.045 186.872C114.189 189.134 113.614 190.396 112.273 192.409C111.102 194.167 110.453 195.237 108.808 196.562C108.048 197.174 107.648 197.618 106.729 197.946C105.454 198.4 104.61 198.077 103.263 197.946C101.89 197.812 101.055 197.824 99.7982 197.254C98.9099 196.851 98.4663 196.497 97.7191 195.87C96.3922 194.757 95.8877 193.862 94.9469 192.409C93.5 190.173 93.001 188.71 92.1748 186.18C91.4014 183.81 91.0417 182.43 90.7887 179.951C90.5692 177.8 90.6259 176.571 90.7887 174.414C90.9327 172.508 91.0267 171.425 91.4818 169.569C92.0316 167.327 93.5609 164.032 93.5609 164.032Z" fill="#3C3C48" stroke="#3C3C48"/>
<path d="M119.204 125.965C117.58 125.425 116.67 125.122 115.046 124.581C113.422 124.041 112.552 123.595 110.888 123.197C108.504 122.627 107.101 122.471 104.65 122.505C102.468 122.535 101.251 122.798 99.1059 123.197C96.9117 123.605 95.6744 123.863 93.5616 124.581C91.6104 125.244 90.557 125.743 88.7103 126.658C86.7555 127.626 85.6528 128.185 83.859 129.426C82.4346 130.412 81.7374 131.101 80.3939 132.194C78.7552 133.528 77.7304 134.162 76.2356 135.655C74.741 137.148 74.0653 138.139 72.7704 139.808C71.3443 141.646 70.4867 142.65 69.3052 144.653C68.3839 146.215 68.0381 147.183 67.2261 148.805C66.4143 150.428 65.8833 151.301 65.147 152.958C64.556 154.288 64.2655 155.052 63.7609 156.419C63.1684 158.023 62.3735 159.879 62.3735 159.879C62.3735 159.879 61.2581 162.14 60.9874 164.032C60.7167 165.924 60.5665 166.292 60.2957 168.185C60.0252 170.077 59.7458 171.123 59.6017 173.029C59.4387 175.186 59.4387 177.794 59.6017 179.951C59.7458 181.857 60.0407 183.594 60.2957 185.488C60.5867 187.647 61.2146 188.896 61.6818 191.024C62.3602 194.114 63.2708 195.703 64.454 198.638C65.2239 200.547 65.6173 201.639 66.5331 203.483C67.5027 205.434 68.1314 206.491 69.3052 208.327C70.5578 210.288 71.3376 211.34 72.7704 213.172C74.3061 215.137 75.1614 216.258 76.9287 218.017C79.3835 220.46 80.7928 221.94 83.859 223.554C85.9049 224.631 87.1573 225.081 89.4033 225.63C91.2624 226.084 92.346 226.184 94.2546 226.323C96.2536 226.468 97.388 226.468 99.3868 226.323" stroke="#297DC3"/>
<path d="M102.267 174.693C101.712 181.167 98.4789 186.178 95.0467 185.885C92.9274 185.703 91.366 183.543 90.5064 180.391C89.9739 178.439 90.1537 176.638 90.3662 174.162C90.5619 171.88 91.1404 168.99 91.8924 167.241C93.2747 164.024 94.8352 162.249 97.0583 162.439C100.49 162.732 102.823 168.219 102.267 174.693Z" fill="#737F8D"/>
<path d="M92.9131 166.913L94.0585 167.634C94.529 167.93 94.9577 168.287 95.3335 168.696L95.6299 169.019C96.1715 169.609 96.5496 170.329 96.7267 171.11C96.775 171.321 96.8081 171.537 96.8257 171.753L96.9769 173.61" stroke="#CDCBD0"/>
<path d="M91.481 180.65C91.481 180.65 92.681 180.824 93.3878 180.589C94.093 180.353 94.4756 180.071 94.9462 179.497C95.3291 179.029 95.6392 178.112 95.6392 178.112" stroke="#CDCBD0"/>
<path d="M72.0757 164.724H76.2339" stroke="#02569C"/>
<path d="M72.0757 167.493H76.2339" stroke="#02569C"/>
<path d="M73.4619 161.956H77.6201" stroke="#02569C"/>
<path d="M73.4619 159.187H77.6201" stroke="#02569C"/>
<path d="M74.8481 156.419H79.0064" stroke="#02569C"/>
<path d="M76.2344 153.65H80.3926" stroke="#02569C"/>
<path d="M77.6201 150.882H80.3923" stroke="#02569C"/>
<path d="M79.0063 148.113H81.7785" stroke="#02569C"/>
<path d="M80.3926 145.345H83.1647" stroke="#02569C"/>
<path d="M81.7783 142.576H84.5505" stroke="#02569C"/>
<path d="M83.1646 139.808H85.9367" stroke="#02569C"/>
<path d="M85.9365 137.04H88.7087" stroke="#02569C"/>
<path d="M88.709 134.271H91.4811" stroke="#02569C"/>
<path d="M91.481 131.502H94.2531" stroke="#02569C"/>
<path d="M95.6392 128.734H97.0252" stroke="#02569C"/>
<path d="M102.57 125.965H103.956" stroke="#02569C"/>
<path d="M99.7974 127.35H101.183" stroke="#02569C"/>
<path d="M98.4116 127.35H99.7977" stroke="#02569C"/>
<path d="M103.956 125.965H105.342" stroke="#02569C"/>
<path d="M108.114 124.581H109.5" stroke="#02569C"/>
<path d="M70.6899 184.104H74.8482" stroke="#02569C"/>
<path d="M72.0757 186.872H74.8478" stroke="#02569C"/>
<path d="M72.0757 189.641H74.8478" stroke="#02569C"/>
<path d="M73.4619 192.409H76.234" stroke="#02569C"/>
<path d="M73.4619 195.177H76.234" stroke="#02569C"/>
<path d="M74.8481 197.946H77.6203" stroke="#02569C"/>
<path d="M74.8481 200.714H77.6203" stroke="#02569C"/>
<path d="M76.2344 203.483H79.0065" stroke="#02569C"/>
<path d="M77.6201 206.251H80.3923" stroke="#02569C"/>
<path d="M79.0063 209.02H81.7785" stroke="#02569C"/>
<path d="M80.3926 211.788H83.1647" stroke="#02569C"/>
<path d="M83.1646 214.557H84.5506" stroke="#02569C"/>
<path d="M84.5508 217.325H85.9369" stroke="#02569C"/>
<path d="M85.9365 218.709H87.3226" stroke="#02569C"/>
<path d="M87.3228 220.094H88.7088" stroke="#02569C"/>
<path d="M88.709 221.478H90.0951" stroke="#02569C"/>
<path d="M90.0947 222.862H91.4808" stroke="#02569C"/>
<path d="M92.8672 224.246H94.2533" stroke="#02569C"/>
<path d="M94.2529 224.246H95.639" stroke="#02569C"/>
<path d="M70.6899 181.335H74.8482" stroke="#02569C"/>
<path d="M70.6899 178.566H74.8482" stroke="#02569C"/>
<path d="M70.6899 175.798H74.8482" stroke="#02569C"/>
<path d="M70.6899 173.029H74.8482" stroke="#02569C"/>
<path d="M72.0757 170.261H76.2339" stroke="#02569C"/>
</g>
<defs>
<linearGradient id="paint0_linear" x1="24.9877" y1="78.1814" x2="55.2615" y2="81.4153" gradientUnits="userSpaceOnUse">
<stop stop-color="#17161C"/>
<stop offset="1" stop-color="#4E4C51"/>
</linearGradient>
<linearGradient id="paint1_linear" x1="79.4312" y1="66.4431" x2="79.4312" y2="88.5909" gradientUnits="userSpaceOnUse">
<stop stop-color="#B3B0B7"/>
<stop offset="1" stop-color="#535156"/>
</linearGradient>
<clipPath id="clip0">
<rect width="219" height="281" fill="white"/>
</clipPath>
</defs>
</svg>
