<svg width="19" height="19" viewBox="0 0 19 19" fill="none" xmlns="http://www.w3.org/2000/svg">
<path d="M0.65 6V6.35H1H1.23226H1.58226V6V1.86667C1.58226 1.83362 1.60682 1.75601 1.70258 1.67355C1.79463 1.59428 1.90951 1.55 2.00645 1.55H7H7.35V1.2V1V0.65H7H1.89032C1.58927 0.65 1.28873 0.797821 1.07162 0.984781C0.856955 1.16963 0.65 1.45797 0.65 1.8V6Z" fill="#B6B6B6" stroke="#B6B6B6" stroke-width="0.7"/>
<path d="M6 18.35H6.35V18V17.7677V17.4177H6H1.86667C1.83362 17.4177 1.75601 17.3932 1.67355 17.2974C1.59428 17.2054 1.55 17.0905 1.55 16.9935L1.55 12V11.65H1.2H1H0.65L0.65 12L0.65 17.1097C0.65 17.4107 0.797821 17.7113 0.984781 17.9284C1.16963 18.143 1.45797 18.35 1.8 18.35H6Z" fill="#B6B6B6" stroke="#B6B6B6" stroke-width="0.7"/>
<path d="M13 18.35H12.65V18V17.7677V17.4177H13H17.1333C17.1664 17.4177 17.244 17.3932 17.3264 17.2974C17.4057 17.2054 17.45 17.0905 17.45 16.9935V12V11.65H17.8H18H18.35V12V17.1097C18.35 17.4107 18.2022 17.7113 18.0152 17.9284C17.8304 18.143 17.542 18.35 17.2 18.35H13Z" fill="#B6B6B6" stroke="#B6B6B6" stroke-width="0.7"/>
<path d="M18.35 6V6.35H18H17.7677H17.4177V6V1.86667C17.4177 1.83362 17.3932 1.75601 17.2974 1.67355C17.2054 1.59428 17.0905 1.55 16.9935 1.55H12H11.65V1.2V1V0.65H12H17.1097C17.4107 0.65 17.7113 0.797821 17.9284 0.984781C18.143 1.16963 18.35 1.45797 18.35 1.8V6Z" fill="#B6B6B6" stroke="#B6B6B6" stroke-width="0.7"/>
</svg>
