<svg width="401" height="553" viewBox="0 0 401 553" fill="none" xmlns="http://www.w3.org/2000/svg">
<g style="mix-blend-mode:multiply" filter="url(#filter0_d)">
<path fill-rule="evenodd" clip-rule="evenodd" d="M13 9H388V536H13V9ZM91 150.372C83.8203 150.372 78 156.193 78 163.372V380.274C78 387.453 83.8203 393.274 91 393.274H310C317.18 393.274 323 387.453 323 380.274V163.372C323 156.193 317.18 150.372 310 150.372H91Z" fill="#666060"/>
</g>
<path d="M78 225H81V163C81 158 86 153 91 153H155.5V150H89.5C84.5 150 78 156 78 162V225Z" fill="white"/>
<path d="M153 393.5V390.5H91C86 390.5 81 385.5 81 380.5V316H78V382C78 387 84 393.5 90 393.5H153Z" fill="white"/>
<path d="M248 393.5V390.5H310C315 390.5 320 385.5 320 380.5V316H323V382C323 387 317 393.5 311 393.5H248Z" fill="white"/>
<path d="M323.5 225H320.5V163C320.5 158 315.5 153 310.5 153H246V150H312C317 150 323.5 156 323.5 162V225Z" fill="white"/>
<defs>
<filter id="filter0_d" x="0" y="0" width="401" height="553" filterUnits="userSpaceOnUse" color-interpolation-filters="sRGB">
<feFlood flood-opacity="0" result="BackgroundImageFix"/>
<feColorMatrix in="SourceAlpha" type="matrix" values="0 0 0 0 0 0 0 0 0 0 0 0 0 0 0 0 0 0 127 0"/>
<feOffset dy="4"/>
<feGaussianBlur stdDeviation="6.5"/>
<feColorMatrix type="matrix" values="0 0 0 0 0 0 0 0 0 0 0 0 0 0 0 0 0 0 0.25 0"/>
<feBlend mode="normal" in2="BackgroundImageFix" result="effect1_dropShadow"/>
<feBlend mode="normal" in="SourceGraphic" in2="effect1_dropShadow" result="shape"/>
</filter>
</defs>
</svg>
