<svg width="109" height="108" viewBox="0 0 109 108" fill="none" xmlns="http://www.w3.org/2000/svg">
<path d="M0 33H1.31613V5.72C1.31613 3.52 3.50968 1.32 5.70323 1.32H34V0L5.04516 0C2.85161 0 0 2.64 0 5.28L0 33Z" fill="black"/>
<path d="M33 108V106.684H5.72C3.52 106.684 1.32 104.49 1.32 102.297L1.32 74H0L0 102.955C0 105.148 2.64 108 5.28 108H33Z" fill="black"/>
<path d="M75 108V106.684H103.107C105.373 106.684 107.64 104.49 107.64 102.297V74H109V102.955C109 105.148 106.28 108 103.56 108H75Z" fill="black"/>
<path d="M109 33H107.684V5.72C107.684 3.52 105.49 1.32 103.297 1.32H75V0L103.955 0C106.148 0 109 2.64 109 5.28V33Z" fill="black"/>
<path fill-rule="evenodd" clip-rule="evenodd" d="M76.2414 24L69.4828 24L69.4828 31.1207L69.4828 38.2414L76.2414 38.2414L83 38.2414L83 31.1207L83 24L76.2414 24ZM80.1034 40.2759C77.5289 40.2759 77.2069 40.3888 77.2069 41.2931C77.2069 41.9711 76.8849 42.3103 76.2414 42.3103C75.5979 42.3103 75.2759 41.9711 75.2759 41.2931C75.2759 40.6151 74.9539 40.2759 74.3103 40.2759C73.6668 40.2759 73.3448 40.6151 73.3448 41.2931C73.3448 41.9711 73.0228 42.3103 72.3793 42.3103C71.7358 42.3103 71.4138 41.9711 71.4138 41.2931C71.4138 40.6151 71.0918 40.2759 70.4483 40.2759C69.8048 40.2759 69.4828 40.6151 69.4828 41.2931C69.4828 41.9711 69.1608 42.3103 68.5172 42.3103C67.6053 42.3103 67.5517 41.9711 67.5517 36.2069L67.5517 30.1034L65.6207 30.1034L63.6897 30.1034L63.6897 28.069L63.6897 26.0345L65.6207 26.0345C67.2297 26.0345 67.5517 25.8651 67.5517 25.0172C67.5517 24.1694 67.2297 24 65.6207 24C64.0117 24 63.6897 24.1694 63.6897 25.0172C63.6897 25.9495 63.3677 26.0345 59.8276 26.0345C56.2875 26.0345 55.9655 26.1194 55.9655 27.0517C55.9655 27.7297 56.2875 28.069 56.931 28.069C57.5746 28.069 57.8966 28.4082 57.8966 29.0862C57.8966 29.7642 58.2186 30.1034 58.8621 30.1034C59.5056 30.1034 59.8276 30.4427 59.8276 31.1207C59.8276 31.7987 60.1496 32.1379 60.7931 32.1379C61.4366 32.1379 61.7586 31.7987 61.7586 31.1207C61.7586 30.4427 62.0806 30.1034 62.7241 30.1034C63.5289 30.1034 63.6897 30.4427 63.6897 32.1379C63.6897 33.8332 63.5289 34.1724 62.7241 34.1724C61.9194 34.1724 61.7586 34.5117 61.7586 36.2069C61.7586 37.9021 61.5979 38.2414 60.7931 38.2414C59.9883 38.2414 59.8276 37.9021 59.8276 36.2069L59.8276 34.1724L57.8966 34.1724C56.2875 34.1724 55.9655 34.3418 55.9655 35.1897C55.9655 35.8676 55.6435 36.2069 55 36.2069C54.3565 36.2069 54.0345 35.8676 54.0345 35.1897C54.0345 34.5117 53.7125 34.1724 53.069 34.1724C52.4255 34.1724 52.1035 33.8332 52.1035 33.1552C52.1035 32.4772 51.7814 32.1379 51.1379 32.1379C50.4944 32.1379 50.1724 31.7987 50.1724 31.1207C50.1724 30.4427 50.4944 30.1034 51.1379 30.1034C51.9963 30.1034 52.1035 29.7642 52.1035 27.0517C52.1035 24.3392 51.9963 24 51.1379 24C50.3332 24 50.1724 24.3392 50.1724 26.0345C50.1724 27.7297 50.0117 28.069 49.2069 28.069C48.5634 28.069 48.2414 28.4082 48.2414 29.0862C48.2414 29.9341 47.9194 30.1034 46.3103 30.1034C44.7013 30.1034 44.3793 29.9341 44.3793 29.0862C44.3793 28.4082 44.0573 28.069 43.4138 28.069C42.609 28.069 42.4483 28.4082 42.4483 30.1034C42.4483 31.7987 42.609 32.1379 43.4138 32.1379C44.0573 32.1379 44.3793 32.4772 44.3793 33.1552C44.3793 34.003 44.7013 34.1724 46.3103 34.1724C47.9194 34.1724 48.2414 34.3418 48.2414 35.1897C48.2414 35.8676 47.9194 36.2069 47.2759 36.2069C46.4711 36.2069 46.3103 36.5461 46.3103 38.2414C46.3103 39.9366 46.1496 40.2759 45.3448 40.2759C44.5401 40.2759 44.3793 39.9366 44.3793 38.2414C44.3793 36.5461 44.2186 36.2069 43.4138 36.2069C42.609 36.2069 42.4483 36.5461 42.4483 38.2414L42.4483 40.2759L37.6207 40.2759L32.7931 40.2759L32.7931 43.3276C32.7931 46.0401 32.9003 46.3793 33.7586 46.3793C34.4021 46.3793 34.7241 46.0401 34.7241 45.3621C34.7241 44.6841 35.0461 44.3448 35.6897 44.3448C36.3332 44.3448 36.6552 44.6841 36.6552 45.3621C36.6552 46.0401 36.9772 46.3793 37.6207 46.3793C38.2642 46.3793 38.5862 46.7186 38.5862 47.3966C38.5862 48.2444 38.9082 48.4138 40.5172 48.4138L42.4483 48.4138L42.4483 50.4483L42.4483 52.4828L39.5517 52.4828L36.6552 52.4828L36.6552 50.4483L36.6552 48.4138L33.7586 48.4138L30.8621 48.4138L30.8621 45.3621C30.8621 42.6496 30.7549 42.3103 29.8966 42.3103C29.253 42.3103 28.931 41.9711 28.931 41.2931C28.931 40.6151 28.609 40.2759 27.9655 40.2759C27.322 40.2759 27 40.6151 27 41.2931C27 41.9711 27.322 42.3103 27.9655 42.3103C28.609 42.3103 28.931 42.6496 28.931 43.3276C28.931 44.0056 28.609 44.3448 27.9655 44.3448C27.0536 44.3448 27 44.6841 27 50.4483C27 56.2125 27.0536 56.5517 27.9655 56.5517C28.609 56.5517 28.931 56.891 28.931 57.569C28.931 58.247 29.253 58.5862 29.8966 58.5862C30.5401 58.5862 30.8621 58.247 30.8621 57.569C30.8621 56.891 31.1841 56.5517 31.8276 56.5517C32.4711 56.5517 32.7931 56.891 32.7931 57.569C32.7931 58.247 33.1151 58.5862 33.7586 58.5862C34.4021 58.5862 34.7241 58.247 34.7241 57.569C34.7241 56.891 35.0461 56.5517 35.6897 56.5517C36.4944 56.5517 36.6552 56.891 36.6552 58.5862C36.6552 60.2814 36.8159 60.6207 37.6207 60.6207C38.2642 60.6207 38.5862 60.9599 38.5862 61.6379C38.5862 62.5423 38.2642 62.6552 35.6897 62.6552C33.1151 62.6552 32.7931 62.7681 32.7931 63.6724C32.7931 64.3504 32.4711 64.6897 31.8276 64.6897C31.0228 64.6897 30.8621 65.0289 30.8621 66.7241C30.8621 68.4194 30.7013 68.7586 29.8966 68.7586C29.0918 68.7586 28.931 69.0979 28.931 70.7931C28.931 72.4883 28.7703 72.8276 27.9655 72.8276C27.1608 72.8276 27 73.1668 27 74.8621C27 76.5573 27.1608 76.8966 27.9655 76.8966C28.609 76.8966 28.931 77.2358 28.931 77.9138C28.931 78.5918 29.253 78.931 29.8966 78.931C30.5401 78.931 30.8621 79.2703 30.8621 79.9483C30.8621 80.6263 30.5401 80.9655 29.8966 80.9655C29.253 80.9655 28.931 81.3048 28.931 81.9828C28.931 82.9151 29.253 83 32.7931 83C36.3332 83 36.6552 82.9151 36.6552 81.9828C36.6552 81.1349 36.3332 80.9655 34.7241 80.9655L32.7931 80.9655L32.7931 78.931C32.7931 77.2358 32.6323 76.8966 31.8276 76.8966C31.1841 76.8966 30.8621 76.5573 30.8621 75.8793C30.8621 75.2013 31.1841 74.8621 31.8276 74.8621C32.4711 74.8621 32.7931 74.5228 32.7931 73.8448C32.7931 73.1668 33.1151 72.8276 33.7586 72.8276C34.5634 72.8276 34.7241 73.1668 34.7241 74.8621C34.7241 76.5573 34.8849 76.8966 35.6897 76.8966C36.3332 76.8966 36.6552 76.5573 36.6552 75.8793C36.6552 75.2013 36.9772 74.8621 37.6207 74.8621C38.2642 74.8621 38.5862 75.2013 38.5862 75.8793C38.5862 76.7272 38.9082 76.8966 40.5172 76.8966L42.4483 76.8966L42.4483 78.931C42.4483 80.6263 42.609 80.9655 43.4138 80.9655C44.0573 80.9655 44.3793 80.6263 44.3793 79.9483C44.3793 79.2703 44.7013 78.931 45.3448 78.931C45.9883 78.931 46.3103 78.5918 46.3103 77.9138C46.3103 77.2358 46.6323 76.8966 47.2759 76.8966C48.0806 76.8966 48.2414 77.2358 48.2414 78.931C48.2414 80.6263 48.0806 80.9655 47.2759 80.9655C46.6323 80.9655 46.3103 81.3048 46.3103 81.9828C46.3103 82.6608 46.6323 83 47.2759 83C47.9194 83 48.2414 82.6608 48.2414 81.9828C48.2414 81.3048 48.5634 80.9655 49.2069 80.9655C50.0117 80.9655 50.1724 80.6263 50.1724 78.931C50.1724 77.2358 50.3332 76.8966 51.1379 76.8966C51.7814 76.8966 52.1034 77.2358 52.1034 77.9138C52.1034 78.7617 52.4254 78.931 54.0345 78.931C55.6435 78.931 55.9655 79.1004 55.9655 79.9483C55.9655 80.7961 55.6435 80.9655 54.0345 80.9655C52.4254 80.9655 52.1034 81.1349 52.1034 81.9828C52.1034 82.9324 52.4254 83 56.931 83C61.4366 83 61.7586 82.9324 61.7586 81.9828C61.7586 81.1349 61.4366 80.9655 59.8276 80.9655L57.8966 80.9655L57.8966 76.8966C57.8966 73.1668 57.9772 72.8276 58.8621 72.8276C59.6668 72.8276 59.8276 72.4883 59.8276 70.7931L59.8276 68.7586L56.931 68.7586C54.3565 68.7586 54.0345 68.6457 54.0345 67.7414C54.0345 66.8091 54.3565 66.7241 57.8966 66.7241C61.4366 66.7241 61.7586 66.8091 61.7586 67.7414C61.7586 68.4194 62.0806 68.7586 62.7241 68.7586C63.5289 68.7586 63.6897 68.4194 63.6897 66.7241C63.6897 65.0289 63.8504 64.6897 64.6552 64.6897C65.4599 64.6897 65.6207 64.3504 65.6207 62.6552C65.6207 60.9599 65.7814 60.6207 66.5862 60.6207C67.2297 60.6207 67.5517 60.2814 67.5517 59.6035C67.5517 58.9255 67.2297 58.5862 66.5862 58.5862C65.9427 58.5862 65.6207 58.9255 65.6207 59.6035C65.6207 60.2814 65.2987 60.6207 64.6552 60.6207C63.8504 60.6207 63.6897 60.2814 63.6897 58.5862L63.6897 56.5517L66.5862 56.5517C69.1608 56.5517 69.4828 56.6646 69.4828 57.569C69.4828 58.4733 69.8048 58.5862 72.3793 58.5862C74.9539 58.5862 75.2759 58.6991 75.2759 59.6035C75.2759 60.2814 74.9539 60.6207 74.3103 60.6207C73.5056 60.6207 73.3448 60.9599 73.3448 62.6552C73.3448 64.3504 73.5056 64.6897 74.3103 64.6897C74.9539 64.6897 75.2759 65.0289 75.2759 65.7069C75.2759 66.5548 75.5979 66.7241 77.2069 66.7241C78.8159 66.7241 79.1379 66.5548 79.1379 65.7069C79.1379 65.0289 79.4599 64.6897 80.1034 64.6897C80.747 64.6897 81.069 64.3504 81.069 63.6724C81.069 62.9944 80.747 62.6552 80.1034 62.6552C79.4599 62.6552 79.1379 62.3159 79.1379 61.6379C79.1379 60.9599 78.8159 60.6207 78.1724 60.6207C77.3141 60.6207 77.2069 60.2814 77.2069 57.569C77.2069 54.8565 77.0997 54.5172 76.2414 54.5172C75.5979 54.5172 75.2759 54.178 75.2759 53.5C75.2759 52.5957 75.5979 52.4828 78.1724 52.4828C80.747 52.4828 81.069 52.5957 81.069 53.5C81.069 54.178 81.391 54.5172 82.0345 54.5172C82.8392 54.5172 83 54.178 83 52.4828L83 50.4483L80.1034 50.4483C77.5289 50.4483 77.2069 50.3354 77.2069 49.431C77.2069 48.753 77.5289 48.4138 78.1724 48.4138C78.8159 48.4138 79.1379 48.0745 79.1379 47.3966C79.1379 46.7186 79.4599 46.3793 80.1034 46.3793C80.747 46.3793 81.069 46.7186 81.069 47.3966C81.069 48.0745 81.391 48.4138 82.0345 48.4138C82.9194 48.4138 83 48.0745 83 44.3448L83 40.2759L80.1034 40.2759ZM82.0345 58.5862C81.391 58.5862 81.069 58.247 81.069 57.569C81.069 56.891 80.747 56.5517 80.1034 56.5517C79.4599 56.5517 79.1379 56.891 79.1379 57.569C79.1379 58.247 79.4599 58.5862 80.1034 58.5862C80.747 58.5862 81.069 58.9255 81.069 59.6035C81.069 60.2814 81.391 60.6207 82.0345 60.6207C82.678 60.6207 83 60.2814 83 59.6035C83 58.9255 82.678 58.5862 82.0345 58.5862ZM76.2414 68.7586L69.4828 68.7586L69.4828 75.8793L69.4828 83L76.2414 83L83 83L83 75.8793L83 68.7586L76.2414 68.7586ZM76.2414 36.2069L71.4138 36.2069L71.4138 31.1207L71.4138 26.0345L76.2414 26.0345L81.069 26.0345L81.069 31.1207L81.069 36.2069L76.2414 36.2069ZM80.1034 44.3448C79.4599 44.3448 79.1379 44.6841 79.1379 45.3621C79.1379 46.0401 78.8159 46.3793 78.1724 46.3793C77.5289 46.3793 77.2069 46.7186 77.2069 47.3966C77.2069 48.0745 76.8849 48.4138 76.2414 48.4138C75.5979 48.4138 75.2759 48.0745 75.2759 47.3966C75.2759 46.7186 74.9539 46.3793 74.3103 46.3793C73.6668 46.3793 73.3448 46.7186 73.3448 47.3966C73.3448 48.2444 73.0228 48.4138 71.4138 48.4138C69.8048 48.4138 69.4828 48.5832 69.4828 49.431C69.4828 50.2789 69.8048 50.4483 71.4138 50.4483L73.3448 50.4483L73.3448 52.4828C73.3448 54.178 73.5056 54.5172 74.3103 54.5172C74.9539 54.5172 75.2759 54.8565 75.2759 55.5345C75.2759 56.4388 74.9539 56.5517 72.3793 56.5517C69.8048 56.5517 69.4828 56.4388 69.4828 55.5345C69.4828 54.6866 69.1608 54.5172 67.5517 54.5172C65.9427 54.5172 65.6207 54.3479 65.6207 53.5C65.6207 52.6521 65.9427 52.4828 67.5517 52.4828C69.1608 52.4828 69.4828 52.3134 69.4828 51.4655C69.4828 50.6176 69.1608 50.4483 67.5517 50.4483C65.9427 50.4483 65.6207 50.2789 65.6207 49.431C65.6207 48.753 65.2987 48.4138 64.6552 48.4138C64.0117 48.4138 63.6897 48.753 63.6897 49.431C63.6897 50.2789 63.3677 50.4483 61.7586 50.4483C60.1496 50.4483 59.8276 50.2789 59.8276 49.431C59.8276 48.753 59.5056 48.4138 58.8621 48.4138C58.0037 48.4138 57.8966 48.0745 57.8966 45.3621L57.8966 42.3103L55.9655 42.3103C54.3565 42.3103 54.0345 42.4797 54.0345 43.3276C54.0345 44.0056 54.3565 44.3448 55 44.3448C55.8583 44.3448 55.9655 44.6841 55.9655 47.3966C55.9655 50.109 55.8583 50.4483 55 50.4483C54.3565 50.4483 54.0345 50.7875 54.0345 51.4655C54.0345 52.1435 54.3565 52.4828 55 52.4828C55.6435 52.4828 55.9655 52.822 55.9655 53.5C55.9655 54.178 55.6435 54.5172 55 54.5172C54.3565 54.5172 54.0345 54.8565 54.0345 55.5345C54.0345 56.2125 54.3565 56.5517 55 56.5517C55.6435 56.5517 55.9655 56.891 55.9655 57.569C55.9655 58.247 55.6435 58.5862 55 58.5862C54.3565 58.5862 54.0345 58.9255 54.0345 59.6034C54.0345 60.2814 54.3565 60.6207 55 60.6207C55.6435 60.6207 55.9655 60.9599 55.9655 61.6379C55.9655 62.3159 56.2875 62.6552 56.931 62.6552C57.7358 62.6552 57.8966 62.3159 57.8966 60.6207C57.8966 58.9255 58.0573 58.5862 58.8621 58.5862C59.5056 58.5862 59.8276 58.247 59.8276 57.569C59.8276 56.891 59.5056 56.5517 58.8621 56.5517C58.0573 56.5517 57.8966 56.2125 57.8966 54.5172L57.8966 52.4828L60.7931 52.4828C63.3677 52.4828 63.6897 52.5957 63.6897 53.5C63.6897 54.3479 63.3677 54.5172 61.7586 54.5172C60.1496 54.5172 59.8276 54.6866 59.8276 55.5345C59.8276 56.2125 60.1496 56.5517 60.7931 56.5517C61.4366 56.5517 61.7586 56.891 61.7586 57.569C61.7586 58.247 61.4366 58.5862 60.7931 58.5862C60.1496 58.5862 59.8276 58.9255 59.8276 59.6034C59.8276 60.2814 60.1496 60.6207 60.7931 60.6207C61.4366 60.6207 61.7586 60.9599 61.7586 61.6379C61.7586 62.3159 62.0806 62.6552 62.7241 62.6552C63.3677 62.6552 63.6897 62.9944 63.6897 63.6724C63.6897 64.3504 63.3677 64.6897 62.7241 64.6897C62.0806 64.6897 61.7586 64.3504 61.7586 63.6724C61.7586 62.9944 61.4366 62.6552 60.7931 62.6552C60.1496 62.6552 59.8276 62.9944 59.8276 63.6724C59.8276 64.5203 59.5056 64.6897 57.8966 64.6897C56.2875 64.6897 55.9655 64.5203 55.9655 63.6724C55.9655 62.9944 55.6435 62.6552 55 62.6552C54.1952 62.6552 54.0345 62.9944 54.0345 64.6897C54.0345 66.3849 53.8737 66.7241 53.069 66.7241C52.1841 66.7241 52.1034 67.0634 52.1034 70.7931C52.1034 74.5228 52.1841 74.8621 53.069 74.8621C53.7125 74.8621 54.0345 74.5228 54.0345 73.8448C54.0345 73.1668 54.3565 72.8276 55 72.8276C55.6435 72.8276 55.9655 72.4883 55.9655 71.8103C55.9655 71.1324 56.2875 70.7931 56.931 70.7931C57.5746 70.7931 57.8966 71.1324 57.8966 71.8103C57.8966 72.4883 57.5746 72.8276 56.931 72.8276C56.1263 72.8276 55.9655 73.1668 55.9655 74.8621L55.9655 76.8966L54.0345 76.8966C52.4254 76.8966 52.1034 76.7272 52.1034 75.8793C52.1034 75.2013 51.7814 74.8621 51.1379 74.8621C50.4944 74.8621 50.1724 75.2013 50.1724 75.8793C50.1724 76.5573 49.8504 76.8966 49.2069 76.8966C48.5634 76.8966 48.2414 76.5573 48.2414 75.8793C48.2414 75.2013 47.9194 74.8621 47.2759 74.8621C46.4711 74.8621 46.3103 74.5228 46.3103 72.8276C46.3103 71.1324 46.1496 70.7931 45.3448 70.7931C44.5401 70.7931 44.3793 70.4539 44.3793 68.7586C44.3793 67.0634 44.5401 66.7241 45.3448 66.7241C45.9883 66.7241 46.3103 66.3849 46.3103 65.7069C46.3103 65.0289 45.9883 64.6897 45.3448 64.6897C44.7013 64.6897 44.3793 64.3504 44.3793 63.6724C44.3793 62.9944 44.0573 62.6552 43.4138 62.6552C42.7703 62.6552 42.4483 62.9944 42.4483 63.6724C42.4483 64.3504 42.1263 64.6897 41.4828 64.6897C40.678 64.6897 40.5172 64.3504 40.5172 62.6552C40.5172 60.9599 40.3565 60.6207 39.5517 60.6207C38.9082 60.6207 38.5862 60.2814 38.5862 59.6034C38.5862 58.9255 38.9082 58.5862 39.5517 58.5862C40.1952 58.5862 40.5172 58.247 40.5172 57.569C40.5172 56.6194 40.8392 56.5517 45.3448 56.5517C49.8504 56.5517 50.1724 56.4841 50.1724 55.5345C50.1724 54.8565 50.4944 54.5172 51.1379 54.5172C51.7814 54.5172 52.1034 54.178 52.1034 53.5C52.1034 52.822 51.7814 52.4828 51.1379 52.4828C50.4944 52.4828 50.1724 52.1435 50.1724 51.4655C50.1724 50.6176 50.4944 50.4483 52.1034 50.4483C53.7125 50.4483 54.0345 50.2789 54.0345 49.431C54.0345 48.5832 53.7125 48.4138 52.1034 48.4138C50.4944 48.4138 50.1724 48.2444 50.1724 47.3966C50.1724 46.7186 49.8504 46.3793 49.2069 46.3793C48.3486 46.3793 48.2414 46.0401 48.2414 43.3276C48.2414 40.6151 48.3486 40.2759 49.2069 40.2759C49.8504 40.2759 50.1724 40.6151 50.1724 41.2931C50.1724 41.9711 50.4944 42.3103 51.1379 42.3103C51.9963 42.3103 52.1034 41.9711 52.1035 39.2586C52.1035 36.5461 51.9963 36.2069 51.1379 36.2069C50.4944 36.2069 50.1724 36.5461 50.1724 37.2241C50.1724 37.9021 49.8504 38.2414 49.2069 38.2414C48.5634 38.2414 48.2414 37.9021 48.2414 37.2241C48.2414 36.5461 48.5634 36.2069 49.2069 36.2069C49.8504 36.2069 50.1724 35.8676 50.1724 35.1897C50.1724 34.5117 49.8504 34.1724 49.2069 34.1724C48.5634 34.1724 48.2414 33.8332 48.2414 33.1552C48.2414 32.4772 48.5634 32.1379 49.2069 32.1379C49.8504 32.1379 50.1724 32.4772 50.1724 33.1552C50.1724 33.8332 50.4944 34.1724 51.1379 34.1724C51.7814 34.1724 52.1035 34.5117 52.1035 35.1897C52.1035 35.8676 52.4255 36.2069 53.069 36.2069C53.8737 36.2069 54.0345 36.5461 54.0345 38.2414L54.0345 40.2759L55.9655 40.2759C57.5746 40.2759 57.8966 40.4452 57.8966 41.2931C57.8966 41.9711 58.2186 42.3103 58.8621 42.3103C59.5056 42.3103 59.8276 41.9711 59.8276 41.2931C59.8276 40.6151 60.1496 40.2759 60.7931 40.2759C61.4366 40.2759 61.7586 39.9366 61.7586 39.2586C61.7586 38.5806 62.0806 38.2414 62.7241 38.2414C63.5289 38.2414 63.6897 37.9021 63.6897 36.2069C63.6897 34.5117 63.8504 34.1724 64.6552 34.1724C65.4599 34.1724 65.6207 34.5117 65.6207 36.2069C65.6207 37.9021 65.4599 38.2414 64.6552 38.2414C64.0117 38.2414 63.6897 38.5806 63.6897 39.2586C63.6897 39.9366 64.0117 40.2759 64.6552 40.2759C65.2987 40.2759 65.6207 40.6151 65.6207 41.2931C65.6207 41.9711 65.9427 42.3103 66.5862 42.3103C67.2297 42.3103 67.5517 42.6496 67.5517 43.3276C67.5517 44.0056 67.8737 44.3448 68.5172 44.3448C69.1608 44.3448 69.4828 44.0056 69.4828 43.3276C69.4828 42.6496 69.8048 42.3103 70.4483 42.3103C71.0918 42.3103 71.4138 42.6496 71.4138 43.3276C71.4138 44.1755 71.7358 44.3448 73.3448 44.3448C74.9539 44.3448 75.2759 44.5142 75.2759 45.3621C75.2759 46.0401 75.5979 46.3793 76.2414 46.3793C77.0461 46.3793 77.2069 46.0401 77.2069 44.3448L77.2069 42.3103L79.1379 42.3103C80.747 42.3103 81.069 42.4797 81.069 43.3276C81.069 44.0056 80.747 44.3448 80.1034 44.3448ZM76.2414 80.9655L71.4138 80.9655L71.4138 75.8793L71.4138 70.7931L76.2414 70.7931L81.069 70.7931L81.069 75.8793L81.069 80.9655L76.2414 80.9655ZM76.2414 28.069L73.3448 28.069L73.3448 31.1207L73.3448 34.1724L76.2414 34.1724L79.1379 34.1724L79.1379 31.1207L79.1379 28.069L76.2414 28.069ZM76.2414 72.8276L73.3448 72.8276L73.3448 75.8793L73.3448 78.931L76.2414 78.931L79.1379 78.931L79.1379 75.8793L79.1379 72.8276L76.2414 72.8276ZM76.2414 64.6897C75.5979 64.6897 75.2759 64.3504 75.2759 63.6724C75.2759 62.9944 75.5979 62.6552 76.2414 62.6552C76.8849 62.6552 77.2069 62.9944 77.2069 63.6724C77.2069 64.3504 76.8849 64.6897 76.2414 64.6897ZM70.4483 44.3448C69.8048 44.3448 69.4828 44.6841 69.4828 45.3621C69.4828 46.2099 69.1608 46.3793 67.5517 46.3793C65.9427 46.3793 65.6207 46.2099 65.6207 45.3621C65.6207 44.6841 65.2987 44.3448 64.6552 44.3448C63.8504 44.3448 63.6897 44.0056 63.6897 42.3103C63.6897 40.6151 63.5289 40.2759 62.7241 40.2759C62.0806 40.2759 61.7586 40.6151 61.7586 41.2931C61.7586 41.9711 61.4366 42.3103 60.7931 42.3103C59.9348 42.3103 59.8276 42.6496 59.8276 45.3621C59.8276 48.0745 59.9348 48.4138 60.7931 48.4138C61.5979 48.4138 61.7586 48.0745 61.7586 46.3793C61.7586 44.6841 61.9194 44.3448 62.7241 44.3448C63.3677 44.3448 63.6897 44.6841 63.6897 45.3621C63.6897 46.0401 64.0117 46.3793 64.6552 46.3793C65.2987 46.3793 65.6207 46.7186 65.6207 47.3966C65.6207 48.2444 65.9427 48.4138 67.5517 48.4138C69.1608 48.4138 69.4828 48.2444 69.4828 47.3966C69.4828 46.7186 69.8048 46.3793 70.4483 46.3793C71.0918 46.3793 71.4138 46.0401 71.4138 45.3621C71.4138 44.6841 71.0918 44.3448 70.4483 44.3448ZM70.4483 52.4828C69.8048 52.4828 69.4828 52.822 69.4828 53.5C69.4828 54.178 69.8048 54.5172 70.4483 54.5172C71.0918 54.5172 71.4138 54.178 71.4138 53.5C71.4138 52.822 71.0918 52.4828 70.4483 52.4828ZM70.4483 60.6207C69.8048 60.6207 69.4828 60.9599 69.4828 61.6379C69.4828 62.3159 69.8048 62.6552 70.4483 62.6552C71.0918 62.6552 71.4138 62.3159 71.4138 61.6379C71.4138 60.9599 71.0918 60.6207 70.4483 60.6207ZM70.4483 64.6897C69.8048 64.6897 69.4828 65.0289 69.4828 65.7069C69.4828 66.3849 69.8048 66.7241 70.4483 66.7241C71.0918 66.7241 71.4138 66.3849 71.4138 65.7069C71.4138 65.0289 71.0918 64.6897 70.4483 64.6897ZM66.5862 66.7241C65.9427 66.7241 65.6207 67.0634 65.6207 67.7414C65.6207 68.4194 65.9427 68.7586 66.5862 68.7586C67.2297 68.7586 67.5517 68.4194 67.5517 67.7414C67.5517 67.0634 67.2297 66.7241 66.5862 66.7241ZM66.5862 72.8276C65.9427 72.8276 65.6207 72.4883 65.6207 71.8103C65.6207 70.9625 65.2987 70.7931 63.6897 70.7931C62.0806 70.7931 61.7586 70.9625 61.7586 71.8103C61.7586 72.4883 62.0806 72.8276 62.7241 72.8276C63.3677 72.8276 63.6897 73.1668 63.6897 73.8448C63.6897 74.6927 64.0117 74.8621 65.6207 74.8621C67.2297 74.8621 67.5517 74.6927 67.5517 73.8448C67.5517 73.1668 67.2297 72.8276 66.5862 72.8276ZM64.6552 76.8966C62.0806 76.8966 61.7586 76.7836 61.7586 75.8793C61.7586 75.2013 61.4366 74.8621 60.7931 74.8621C60.1496 74.8621 59.8276 75.2013 59.8276 75.8793C59.8276 76.5573 60.1496 76.8966 60.7931 76.8966C61.4366 76.8966 61.7586 77.2358 61.7586 77.9138C61.7586 78.5918 62.0806 78.931 62.7241 78.931C63.3677 78.931 63.6897 79.2703 63.6897 79.9483C63.6897 80.6263 64.0117 80.9655 64.6552 80.9655C65.2987 80.9655 65.6207 81.3048 65.6207 81.9828C65.6207 82.6608 65.9427 83 66.5862 83C67.4446 83 67.5517 82.6608 67.5517 79.9483L67.5517 76.8966L64.6552 76.8966ZM60.7931 30.1034C60.1496 30.1034 59.8276 29.7642 59.8276 29.0862C59.8276 28.4082 60.1496 28.069 60.7931 28.069C61.4366 28.069 61.7586 28.4082 61.7586 29.0862C61.7586 29.7642 61.4366 30.1034 60.7931 30.1034ZM56.931 38.2414C56.2875 38.2414 55.9655 37.9021 55.9655 37.2241C55.9655 36.5461 56.2875 36.2069 56.931 36.2069C57.5746 36.2069 57.8966 36.5461 57.8966 37.2241C57.8966 37.9021 57.5746 38.2414 56.931 38.2414ZM53.069 44.3448C52.4255 44.3448 52.1034 44.6841 52.1034 45.3621C52.1034 46.0401 52.4255 46.3793 53.069 46.3793C53.7125 46.3793 54.0345 46.0401 54.0345 45.3621C54.0345 44.6841 53.7125 44.3448 53.069 44.3448ZM53.069 60.6207C52.4254 60.6207 52.1034 60.9599 52.1034 61.6379C52.1034 62.3159 52.4254 62.6552 53.069 62.6552C53.7125 62.6552 54.0345 62.3159 54.0345 61.6379C54.0345 60.9599 53.7125 60.6207 53.069 60.6207ZM51.1379 64.6897C50.2796 64.6897 50.1724 64.3504 50.1724 61.6379L50.1724 58.5862L48.2414 58.5862L46.3103 58.5862L46.3103 61.6379C46.3103 64.3504 46.4175 64.6897 47.2759 64.6897C47.9194 64.6897 48.2414 65.0289 48.2414 65.7069C48.2414 66.3849 47.9194 66.7241 47.2759 66.7241C46.6323 66.7241 46.3103 67.0634 46.3103 67.7414C46.3103 68.4194 46.6323 68.7586 47.2759 68.7586C47.9194 68.7586 48.2414 68.4194 48.2414 67.7414C48.2414 66.8935 48.5634 66.7241 50.1724 66.7241C51.7814 66.7241 52.1034 66.5548 52.1034 65.7069C52.1034 65.0289 51.7814 64.6897 51.1379 64.6897ZM49.2069 72.8276C48.5634 72.8276 48.2414 73.1668 48.2414 73.8448C48.2414 74.5228 48.5634 74.8621 49.2069 74.8621C49.8504 74.8621 50.1724 74.5228 50.1724 73.8448C50.1724 73.1668 49.8504 72.8276 49.2069 72.8276ZM47.2759 54.5172C46.6323 54.5172 46.3103 54.178 46.3103 53.5C46.3103 52.822 45.9883 52.4828 45.3448 52.4828C44.7013 52.4828 44.3793 52.1435 44.3793 51.4655C44.3793 50.7875 44.7013 50.4483 45.3448 50.4483C45.9883 50.4483 46.3103 50.109 46.3103 49.431C46.3103 48.753 46.6323 48.4138 47.2759 48.4138C48.1342 48.4138 48.2414 48.753 48.2414 51.4655C48.2414 54.178 48.1342 54.5172 47.2759 54.5172ZM43.4138 42.3103C42.7703 42.3103 42.4483 41.9711 42.4483 41.2931C42.4483 40.6151 42.7703 40.2759 43.4138 40.2759C44.0573 40.2759 44.3793 40.6151 44.3793 41.2931C44.3793 41.9711 44.0573 42.3103 43.4138 42.3103ZM43.4138 48.4138C42.7703 48.4138 42.4483 48.0745 42.4483 47.3966C42.4483 46.7186 42.1263 46.3793 41.4828 46.3793C40.8392 46.3793 40.5172 46.0401 40.5172 45.3621C40.5172 44.6841 40.1952 44.3448 39.5517 44.3448C38.9082 44.3448 38.5862 44.0056 38.5862 43.3276C38.5862 42.6496 38.9082 42.3103 39.5517 42.3103C40.1952 42.3103 40.5172 42.6496 40.5172 43.3276C40.5172 44.0056 40.8392 44.3448 41.4828 44.3448C42.1263 44.3448 42.4483 44.6841 42.4483 45.3621C42.4483 46.0401 42.7703 46.3793 43.4138 46.3793C44.0573 46.3793 44.3793 46.7186 44.3793 47.3966C44.3793 48.0745 44.0573 48.4138 43.4138 48.4138ZM43.4138 58.5862C42.7703 58.5862 42.4483 58.9255 42.4483 59.6034C42.4483 60.2814 42.7703 60.6207 43.4138 60.6207C44.0573 60.6207 44.3793 60.2814 44.3793 59.6034C44.3793 58.9255 44.0573 58.5862 43.4138 58.5862ZM39.5517 72.8276L36.6552 72.8276L36.6552 69.7759L36.6552 66.7241L39.5517 66.7241L42.4483 66.7241L42.4483 69.7759L42.4483 72.8276L39.5517 72.8276ZM33.7586 24L27 24L27 31.1207L27 38.2414L33.7586 38.2414L40.5172 38.2414L40.5172 31.1207L40.5172 24L33.7586 24ZM39.5517 68.7586C38.9082 68.7586 38.5862 69.0979 38.5862 69.7759C38.5862 70.4539 38.9082 70.7931 39.5517 70.7931C40.1952 70.7931 40.5172 70.4539 40.5172 69.7759C40.5172 69.0979 40.1952 68.7586 39.5517 68.7586ZM33.7586 36.2069L28.931 36.2069L28.931 31.1207L28.931 26.0345L33.7586 26.0345L38.5862 26.0345L38.5862 31.1207L38.5862 36.2069L33.7586 36.2069ZM33.7586 28.069L30.8621 28.069L30.8621 31.1207L30.8621 34.1724L33.7586 34.1724L36.6552 34.1724L36.6552 31.1207L36.6552 28.069L33.7586 28.069ZM32.7931 54.5172C31.1841 54.5172 30.8621 54.6866 30.8621 55.5345C30.8621 56.2125 30.5401 56.5517 29.8966 56.5517C29.253 56.5517 28.931 56.2125 28.931 55.5345C28.931 54.8565 29.253 54.5172 29.8966 54.5172C30.5401 54.5172 30.8621 54.178 30.8621 53.5C30.8621 52.822 30.5401 52.4828 29.8966 52.4828C29.0918 52.4828 28.931 52.1435 28.931 50.4483C28.931 48.753 29.0918 48.4138 29.8966 48.4138C30.5401 48.4138 30.8621 48.753 30.8621 49.431C30.8621 50.109 31.1841 50.4483 31.8276 50.4483C32.4711 50.4483 32.7931 50.7875 32.7931 51.4655C32.7931 52.1435 33.1151 52.4828 33.7586 52.4828C34.4021 52.4828 34.7241 52.822 34.7241 53.5C34.7241 54.3479 34.4021 54.5172 32.7931 54.5172ZM33.7586 66.7241C33.1151 66.7241 32.7931 66.3849 32.7931 65.7069C32.7931 65.0289 33.1151 64.6897 33.7586 64.6897C34.4021 64.6897 34.7241 65.0289 34.7241 65.7069C34.7241 66.3849 34.4021 66.7241 33.7586 66.7241ZM32.7931 70.7931C31.1841 70.7931 30.8621 70.6237 30.8621 69.7759C30.8621 68.928 31.1841 68.7586 32.7931 68.7586C34.4021 68.7586 34.7241 68.928 34.7241 69.7759C34.7241 70.6237 34.4021 70.7931 32.7931 70.7931ZM29.8966 60.6207C29.253 60.6207 28.931 60.9599 28.931 61.6379C28.931 62.3159 28.609 62.6552 27.9655 62.6552C27.1608 62.6552 27 62.9944 27 64.6897C27 66.3849 27.1608 66.7241 27.9655 66.7241C28.7703 66.7241 28.931 66.3849 28.931 64.6897C28.931 62.9944 29.0918 62.6552 29.8966 62.6552C30.5401 62.6552 30.8621 62.3159 30.8621 61.6379C30.8621 60.9599 30.5401 60.6207 29.8966 60.6207ZM29.8966 74.8621C29.253 74.8621 28.931 74.5228 28.931 73.8448C28.931 73.1668 29.253 72.8276 29.8966 72.8276C30.5401 72.8276 30.8621 73.1668 30.8621 73.8448C30.8621 74.5228 30.5401 74.8621 29.8966 74.8621Z" fill="black"/>
</svg>
