<svg width="248" height="85" viewBox="0 0 248 85" fill="none" xmlns="http://www.w3.org/2000/svg">
<path d="M3.92416 3.89717V9.74293H9.81041V3.89717H3.92416Z" fill="#FBFDFF"/>
<path fill-rule="evenodd" clip-rule="evenodd" d="M0 0V13.6401H13.7346V0H0ZM1.96208 1.94859H11.7725V11.6915H1.96208V1.94859Z" fill="#FBFDFF"/>
<path d="M23.545 38.9717H21.5829V37.0231H23.545V38.9717Z" fill="#FBFDFF"/>
<path d="M33.3554 25.3316V21.4344H35.3175V25.3316H33.3554Z" fill="#FBFDFF"/>
<path d="M35.3175 13.6401V11.6915H37.2795V13.6401H35.3175Z" fill="#FBFDFF"/>
<path d="M45.1279 42.8689H43.1658V44.8175H45.1279V42.8689Z" fill="#FBFDFF"/>
<path fill-rule="evenodd" clip-rule="evenodd" d="M23.545 0V3.89717H21.5829V1.94859H17.6587V3.89717H15.6967V5.84576H21.5829V7.79434H15.6967V13.6401H17.6587V11.6915H19.6208V15.5887H15.6967V17.5373H19.6208V25.3316H17.6587V27.2802H19.6208V29.2288H15.6967V31.1774H11.7725V29.2288H13.7346V27.2802H11.7725V29.2288H9.81041V31.1774H7.84833V27.2802H9.81041V25.3316H7.84833V23.383H11.7725V25.3316H13.7346V23.383H11.7725V21.4344H13.7346V19.4859H11.7725V17.5373H13.7346V15.5887H11.7725V17.5373H9.81041V15.5887H7.84833V17.5373H3.92416V15.5887H1.96208V17.5373H3.92416V19.4859H0V23.383H1.96208V29.2288H0V35.0746H1.96208V29.2288H5.88624V33.126H3.92416V38.9717H0V40.9203H3.92416V38.9717H5.88624V40.9203H7.84833V33.126H9.81041V35.0746H11.7725V37.0231H13.7346V35.0746H19.6208V37.0231H17.6587V38.9717H9.81041V40.9203H15.6967V42.8689H17.6587V44.8175H19.6208V42.8689H17.6587V40.9203H21.5829V42.8689H23.545V40.9203H25.5071V42.8689H29.4312V44.8175H27.4691V46.7661H25.5071V44.8175H21.5829V46.7661H19.6208V48.7147H17.6587V46.7661H15.6967V48.7147H17.6587V50.6632H19.6208V52.6118H15.6967V54.5604H17.6587V56.509H19.6208V52.6118H21.5829V54.5604H23.545V56.509H25.5071V52.6118H27.4691V48.7147H29.4312V44.8175H31.3933V42.8689H35.3175V44.8175H33.3554V48.7147H35.3175V50.6632H33.3554V56.509H35.3175V54.5604H37.2795V52.6118H39.2416V56.509H41.2037V52.6118H43.1658V54.5604H47.09V56.509H49.052V54.5604H51.0141V50.6632H52.9762V56.509H54.9383V54.5604H56.9004V50.6632H54.9383V46.7661H56.9004V38.9717H52.9762V40.9203H51.0141V37.0231H52.9762V33.126H47.09V29.2288H49.052V31.1774H51.0141V29.2288H49.052V25.3316H51.0141V27.2802H52.9762V25.3316H51.0141V19.4859H54.9383V21.4344H52.9762V23.383H54.9383V29.2288H52.9762V31.1774H54.9383V29.2288H56.9004V17.5373H52.9762V15.5887H51.0141V17.5373H49.052V15.5887H45.1279V17.5373H43.1658V15.5887H41.2037V11.6915H39.2416V9.74293H37.2795V7.79434H33.3554V11.6915H31.3933V3.89717H33.3554V5.84576H39.2416V7.79434H41.2037V5.84576H39.2416V1.94859H41.2037V0H39.2416V1.94859H37.2795V0H35.3175V1.94859H31.3933V3.89717H29.4312V11.6915H27.4691V17.5373H25.5071V21.4344H27.4691V27.2802H25.5071V29.2288H21.5829V27.2802H23.545V25.3316H25.5071V23.383H23.545V25.3316H21.5829V19.4859H23.545V15.5887H25.5071V11.6915H23.545V7.79434H25.5071V9.74293H27.4691V7.79434H25.5071V5.84576H27.4691V0H23.545ZM21.5829 11.6915H23.545V13.6401H21.5829V11.6915ZM21.5829 11.6915V9.74293H19.6208V11.6915H21.5829ZM21.5829 25.3316V27.2802H19.6208V25.3316H21.5829ZM31.3933 33.126H29.4312V35.0746H27.4691V29.2288H25.5071V35.0746H23.545V31.1774H17.6587V33.126H19.6208V35.0746H21.5829V37.0231H19.6208V38.9717H21.5829V40.9203H23.545V38.9717H25.5071V40.9203H27.4691V38.9717H25.5071V37.0231H29.4312V38.9717H33.3554V37.0231H31.3933V33.126ZM33.3554 25.3316V27.2802H31.3933V29.2288H29.4312V31.1774H31.3933V33.126H33.3554V35.0746H35.3175V33.126H37.2795V37.0231H35.3175V40.9203H37.2795V42.8689H39.2416V40.9203H37.2795V38.9717H39.2416V35.0746H41.2037V38.9717H45.1279V37.0231H47.09V38.9717H49.052V37.0231H47.09V35.0746H41.2037V33.126H37.2795V31.1774H35.3175V33.126H33.3554V29.2288H39.2416V27.2802H43.1658V25.3316H45.1279V29.2288H41.2037V31.1774H43.1658V33.126H45.1279V29.2288H47.09V25.3316H49.052V23.383H47.09V25.3316H45.1279V21.4344H49.052V19.4859H43.1658V23.383H39.2416V19.4859H41.2037V15.5887H39.2416V17.5373H37.2795V13.6401H39.2416V11.6915H37.2795V9.74293H35.3175V11.6915H33.3554V13.6401H35.3175V17.5373H37.2795V21.4344H35.3175V19.4859H33.3554V17.5373H31.3933V15.5887H29.4312V17.5373H31.3933V19.4859H27.4691V21.4344H31.3933V25.3316H33.3554ZM35.3175 1.94859H37.2795V3.89717H35.3175V1.94859ZM29.4312 11.6915H31.3933V13.6401H29.4312V11.6915ZM37.2795 48.7147V46.7661H35.3175V48.7147H37.2795ZM37.2795 50.6632H35.3175V52.6118H37.2795V50.6632ZM37.2795 50.6632V48.7147H45.1279V50.6632H47.09V48.7147H49.052V46.7661H51.0141V44.8175H49.052V40.9203H51.0141V42.8689H54.9383V44.8175H52.9762V48.7147H51.0141V50.6632H49.052V54.5604H47.09V52.6118H43.1658V50.6632H37.2795ZM19.6208 50.6632H25.5071V48.7147H23.545V46.7661H21.5829V48.7147H19.6208V50.6632ZM13.7346 35.0746H11.7725V33.126H13.7346V35.0746ZM7.84833 21.4344H11.7725V19.4859H7.84833V21.4344ZM7.84833 21.4344H1.96208V23.383H7.84833V21.4344ZM7.84833 25.3316H3.92416V27.2802H7.84833V25.3316ZM25.5071 5.84576H23.545V3.89717H25.5071V5.84576ZM41.2037 40.9203H47.09V46.7661H41.2037V40.9203Z" fill="#FBFDFF"/>
<path d="M47.09 3.89717V9.74293H52.9762V3.89717H47.09Z" fill="#FBFDFF"/>
<path fill-rule="evenodd" clip-rule="evenodd" d="M43.1658 0V13.6401H56.9004V0H43.1658ZM45.1279 1.94859H54.9383V11.6915H45.1279V1.94859Z" fill="#FBFDFF"/>
<path d="M17.6587 19.4859H15.6967V21.4344H17.6587V19.4859Z" fill="#FBFDFF"/>
<path d="M56.9004 33.126H54.9383V37.0231H56.9004V33.126Z" fill="#FBFDFF"/>
<path d="M3.92416 46.7661V52.6118H9.81041V46.7661H3.92416Z" fill="#FBFDFF"/>
<path fill-rule="evenodd" clip-rule="evenodd" d="M0 42.8689V56.509H13.7346V42.8689H0ZM1.96208 44.8175H11.7725V54.5604H1.96208V44.8175Z" fill="#FBFDFF"/>
<path d="M31.3933 50.6632H29.4312V56.509H31.3933V50.6632Z" fill="#FBFDFF"/>
<path d="M121.526 7.90322H103.88V56.509H96.6782V7.90322H79.0695V1.98664H121.526V7.90322Z" fill="#FBFDFF"/>
<path fill-rule="evenodd" clip-rule="evenodd" d="M149.414 42.2793L144.248 56.509H136.782L157.747 1.98664H164.081L185.084 56.509H177.656L172.415 42.2793H149.414ZM151.601 36.3627H170.265L160.914 10.8615L151.601 36.3627Z" fill="#FBFDFF"/>
<path d="M248 49.3567C246.14 52.0029 243.538 53.9876 240.195 55.3107C236.877 56.6089 233.006 57.2579 228.581 57.2579C224.107 57.2579 220.135 56.2219 216.666 54.1499C213.197 52.0528 210.508 49.0821 208.597 45.2375C206.712 41.393 205.744 36.9369 205.694 31.8691V27.1134C205.694 18.9001 207.617 12.5341 211.463 8.01556C215.334 3.49699 220.764 1.23771 227.752 1.23771C233.483 1.23771 238.096 2.69813 241.59 5.61897C245.084 8.51485 247.221 12.634 248 17.9764H240.76C239.403 10.7616 235.079 7.15428 227.79 7.15428C222.938 7.15428 219.255 8.85187 216.742 12.247C214.253 15.6172 212.996 20.5103 212.971 26.9261V31.3823C212.971 37.4986 214.379 42.3666 217.194 45.9865C220.01 49.5814 223.818 51.3788 228.619 51.3788C231.334 51.3788 233.709 51.0792 235.746 50.4801C237.782 49.8809 239.466 48.8699 240.798 47.4469V35.2018H228.091V29.3602H248V49.3567Z" fill="#FBFDFF"/>
<path d="M13.9909 69.4143H8.41836V84.7635H6.1441V69.4143H0.583451V67.5459H13.9909V69.4143Z" fill="#FBFDFF"/>
<path fill-rule="evenodd" clip-rule="evenodd" d="M27.7985 77.7984H23.7262V84.7635H21.4281V67.5459H27.1674C29.1202 67.5459 30.6205 67.9874 31.6683 68.8703C32.7241 69.7533 33.2519 71.0383 33.2519 72.7254C33.2519 73.7975 32.9582 74.7317 32.3708 75.528C31.7913 76.3242 30.9816 76.9194 29.9417 77.3136L34.014 84.6216V84.7635H31.5611L27.7985 77.7984ZM23.7262 75.9418H27.2388C28.374 75.9418 29.275 75.6502 29.9417 75.0668C30.6165 74.4834 30.9539 73.7029 30.9539 72.7254C30.9539 71.6611 30.6324 70.8452 29.9894 70.2775C29.3543 69.7099 28.4335 69.4222 27.2269 69.4143H23.7262V75.9418Z" fill="#FBFDFF"/>
<path fill-rule="evenodd" clip-rule="evenodd" d="M43.654 80.2699L42.0228 84.7635H39.6651L46.2855 67.5459H48.2859L54.9182 84.7635H52.5725L50.9174 80.2699H43.654ZM44.3447 78.4015H50.2387L47.2857 70.3485L44.3447 78.4015Z" fill="#FBFDFF"/>
<path d="M74.7389 79.3002C74.5246 81.1213 73.8458 82.5285 72.7028 83.5218C71.5676 84.5073 70.0554 85 68.1661 85C66.1181 85 64.4749 84.2708 63.2366 82.8123C62.0062 81.3539 61.3909 79.4027 61.3909 76.9588V75.3033C61.3909 73.7029 61.6767 72.2957 62.2483 71.0817C62.8277 69.8676 63.6454 68.9373 64.7011 68.2909C65.7569 67.6366 66.9794 67.3094 68.3685 67.3094C70.2102 67.3094 71.6867 67.8218 72.798 68.8467C73.9093 69.8637 74.5563 71.2748 74.7389 73.0801H72.4408C72.2423 71.7084 71.8097 70.7151 71.1429 70.1002C70.4841 69.4853 69.5593 69.1778 68.3685 69.1778C66.9079 69.1778 65.7609 69.7139 64.9274 70.786C64.1018 71.8582 63.689 73.3837 63.689 75.3624V77.0298C63.689 78.8982 64.082 80.3842 64.8678 81.4879C65.6537 82.5916 66.7531 83.1434 68.1661 83.1434C69.4362 83.1434 70.4086 82.8596 71.0834 82.292C71.7661 81.7165 72.2185 80.7193 72.4408 79.3002H74.7389Z" fill="#FBFDFF"/>
<path d="M92.5472 76.8051H85.0338V82.9069H93.7618V84.7635H82.7476V67.5459H93.6427V69.4143H85.0338V74.9485H92.5472V76.8051Z" fill="#FBFDFF"/>
<path d="M117.519 77.0889C115.558 76.5292 114.129 75.8433 113.232 75.0313C112.343 74.2114 111.899 73.2023 111.899 72.004C111.899 70.6481 112.443 69.5286 113.53 68.6457C114.625 67.7548 116.046 67.3094 117.793 67.3094C118.984 67.3094 120.043 67.538 120.972 67.9953C121.909 68.4525 122.631 69.0832 123.139 69.8873C123.655 70.6914 123.913 71.5704 123.913 72.5243H121.615C121.615 71.4837 121.282 70.6678 120.615 70.0765C119.948 69.4774 119.007 69.1778 117.793 69.1778C116.666 69.1778 115.784 69.4261 115.149 69.9228C114.522 70.4116 114.209 71.0935 114.209 71.9686C114.209 72.6702 114.506 73.2654 115.102 73.7542C115.705 74.2351 116.725 74.6765 118.162 75.0786C119.607 75.4807 120.734 75.9261 121.544 76.4149C122.361 76.8958 122.964 77.4594 123.353 78.1059C123.75 78.7523 123.949 79.5131 123.949 80.3881C123.949 81.7835 123.401 82.903 122.306 83.7465C121.21 84.5822 119.746 85 117.912 85C116.721 85 115.61 84.7753 114.578 84.326C113.546 83.8687 112.748 83.2459 112.185 82.4576C111.629 81.6692 111.351 80.7744 111.351 79.7732H113.649C113.649 80.8139 114.034 81.6377 114.804 82.2447C115.582 82.8439 116.618 83.1434 117.912 83.1434C119.118 83.1434 120.043 82.899 120.686 82.4103C121.329 81.9215 121.651 81.2553 121.651 80.4118C121.651 79.5683 121.353 78.9179 120.758 78.4606C120.162 77.9955 119.083 77.5383 117.519 77.0889Z" fill="#FBFDFF"/>
<path d="M137.054 76.1902L141.579 67.5459H144.174L138.197 78.3424V84.7635H135.911V78.3424L129.933 67.5459H132.553L137.054 76.1902Z" fill="#FBFDFF"/>
<path d="M156.208 77.0889C154.247 76.5292 152.818 75.8433 151.921 75.0313C151.032 74.2114 150.587 73.2023 150.587 72.004C150.587 70.6481 151.131 69.5286 152.219 68.6457C153.314 67.7548 154.735 67.3094 156.482 67.3094C157.672 67.3094 158.732 67.538 159.661 67.9953C160.597 68.4525 161.32 69.0832 161.828 69.8873C162.344 70.6914 162.602 71.5704 162.602 72.5243H160.304C160.304 71.4837 159.97 70.6678 159.304 70.0765C158.637 69.4774 157.696 69.1778 156.482 69.1778C155.354 69.1778 154.473 69.4261 153.838 69.9228C153.211 70.4116 152.897 71.0935 152.897 71.9686C152.897 72.6702 153.195 73.2654 153.791 73.7542C154.394 74.2351 155.414 74.6765 156.851 75.0786C158.295 75.4807 159.423 75.9261 160.232 76.4149C161.05 76.8958 161.653 77.4594 162.042 78.1059C162.439 78.7523 162.638 79.5131 162.638 80.3881C162.638 81.7835 162.09 82.903 160.994 83.7465C159.899 84.5822 158.434 85 156.601 85C155.41 85 154.299 84.7753 153.267 84.326C152.235 83.8687 151.437 83.2459 150.873 82.4576C150.318 81.6692 150.04 80.7744 150.04 79.7732H152.338C152.338 80.8139 152.723 81.6377 153.493 82.2447C154.271 82.8439 155.307 83.1434 156.601 83.1434C157.807 83.1434 158.732 82.899 159.375 82.4103C160.018 81.9215 160.339 81.2553 160.339 80.4118C160.339 79.5683 160.042 78.9179 159.446 78.4606C158.851 77.9955 157.771 77.5383 156.208 77.0889Z" fill="#FBFDFF"/>
<path d="M182.434 69.4143H176.862V84.7635H174.588V69.4143H169.027V67.5459H182.434V69.4143Z" fill="#FBFDFF"/>
<path d="M199.683 76.8051H192.17V82.9069H200.898V84.7635H189.884V67.5459H200.779V69.4143H192.17V74.9485H199.683V76.8051Z" fill="#FBFDFF"/>
<path d="M211.574 67.5459L217.241 81.5943L222.909 67.5459H225.874V84.7635H223.588V78.0586L223.802 70.8215L218.111 84.7635H216.36L210.681 70.857L210.907 78.0586V84.7635H208.621V67.5459H211.574Z" fill="#FBFDFF"/>
<path d="M239.896 77.0889C237.935 76.5292 236.506 75.8433 235.609 75.0313C234.72 74.2114 234.276 73.2023 234.276 72.004C234.276 70.6481 234.82 69.5286 235.907 68.6457C237.003 67.7548 238.423 67.3094 240.17 67.3094C241.361 67.3094 242.42 67.538 243.349 67.9953C244.286 68.4525 245.008 69.0832 245.516 69.8873C246.032 70.6914 246.29 71.5704 246.29 72.5243H243.992C243.992 71.4837 243.659 70.6678 242.992 70.0765C242.325 69.4774 241.384 69.1778 240.17 69.1778C239.043 69.1778 238.162 69.4261 237.526 69.9228C236.899 70.4116 236.586 71.0935 236.586 71.9686C236.586 72.6702 236.883 73.2654 237.479 73.7542C238.082 74.2351 239.102 74.6765 240.539 75.0786C241.984 75.4807 243.111 75.9261 243.921 76.4149C244.738 76.8958 245.342 77.4594 245.73 78.1059C246.127 78.7523 246.326 79.5131 246.326 80.3881C246.326 81.7835 245.778 82.903 244.683 83.7465C243.587 84.5822 242.123 85 240.289 85C239.098 85 237.987 84.7753 236.955 84.326C235.923 83.8687 235.125 83.2459 234.562 82.4576C234.006 81.6692 233.728 80.7744 233.728 79.7732H236.026C236.026 80.8139 236.411 81.6377 237.181 82.2447C237.959 82.8439 238.995 83.1434 240.289 83.1434C241.496 83.1434 242.42 82.899 243.063 82.4103C243.706 81.9215 244.028 81.2553 244.028 80.4118C244.028 79.5683 243.73 78.9179 243.135 78.4606C242.539 77.9955 241.46 77.5383 239.896 77.0889Z" fill="#FBFDFF"/>
</svg>
