<svg width="210" height="210" viewBox="0 0 210 210" fill="none" xmlns="http://www.w3.org/2000/svg">
<path d="M35.6763 73.4737C23.2581 53.6427 29.2673 27.4995 49.0983 15.0813C68.9292 2.663 95.0724 8.67221 107.491 28.5032L174.946 136.225C187.365 156.056 181.355 182.199 161.524 194.617C141.693 207.035 115.55 201.026 103.132 181.195L35.6763 73.4737Z" fill="#EAE9F1"/>
<path fill-rule="evenodd" clip-rule="evenodd" d="M162.533 193.965C181.556 181.303 187.151 155.715 174.946 136.225L107.49 28.5032C95.0717 8.67225 68.9285 2.66305 49.0975 15.0813C44.5431 17.9333 40.7178 21.5091 37.6772 25.5662C38.0095 25.345 38.3459 25.1277 38.6864 24.9145C58.5174 12.4963 84.6606 18.5055 97.0788 38.3364L164.535 146.058C174.101 161.335 172.732 180.357 162.533 193.965Z" fill="#E4E2E7"/>
<path d="M103.132 181.195C115.55 201.026 141.694 207.035 161.525 194.617C181.356 182.198 187.365 156.055 174.947 136.224L141.219 82.3634L69.4043 127.334L103.132 181.195Z" fill="#297DC3"/>
<path fill-rule="evenodd" clip-rule="evenodd" d="M174.945 136.225C187.151 155.715 181.555 181.303 162.533 193.965C172.732 180.357 174.101 161.334 164.534 146.058L129.316 89.8167L141.218 82.3638L174.945 136.225Z" fill="#388CD2"/>
<path d="M150.266 118.869C153.473 119.606 155.475 122.804 154.738 126.01C154.001 129.217 150.803 131.219 147.597 130.482C144.39 129.745 142.388 126.548 143.125 123.341C143.862 120.134 147.059 118.132 150.266 118.869Z" fill="#106CB9"/>
<path d="M165.673 141.358C169.748 142.295 172.292 146.358 171.356 150.433C170.419 154.508 166.356 157.053 162.281 156.116C158.206 155.179 155.661 151.116 156.598 147.041C157.535 142.966 161.598 140.421 165.673 141.358Z" fill="#106CB9"/>
<path d="M147.443 137.168C149.924 137.738 151.473 140.212 150.902 142.693C150.332 145.174 147.859 146.722 145.378 146.152C142.897 145.582 141.348 143.108 141.918 140.628C142.488 138.147 144.962 136.598 147.443 137.168Z" fill="#106CB9"/>
<path d="M168.268 163.86C170.749 164.431 172.298 166.904 171.728 169.385C171.157 171.866 168.684 173.415 166.203 172.845C163.722 172.274 162.173 169.801 162.743 167.32C163.314 164.839 165.787 163.29 168.268 163.86Z" fill="#106CB9"/>
<path d="M153.109 158.593C155.59 159.163 157.139 161.636 156.568 164.117C155.998 166.598 153.525 168.147 151.044 167.577C148.563 167.007 147.014 164.533 147.584 162.052C148.154 159.571 150.628 158.023 153.109 158.593Z" fill="#106CB9"/>
<path d="M155.947 176.311C158.428 176.881 159.976 179.355 159.406 181.836C158.836 184.317 156.362 185.865 153.882 185.295C151.401 184.725 149.852 182.252 150.422 179.771C150.992 177.29 153.466 175.741 155.947 176.311Z" fill="#106CB9"/>
<path d="M143.392 101.599C145.873 102.169 147.422 104.643 146.851 107.124C146.281 109.605 143.808 111.154 141.327 110.583C138.846 110.013 137.297 107.54 137.867 105.059C138.438 102.578 140.911 101.029 143.392 101.599Z" fill="#106CB9"/>
<path fill-rule="evenodd" clip-rule="evenodd" d="M43.4629 48.0515C47.2369 45.8144 52.1098 47.0603 54.3468 50.8343L83.7135 100.376C85.9505 104.15 84.7046 109.023 80.9306 111.26C77.1567 113.497 72.2837 112.252 70.0467 108.478L40.6801 58.9354C38.443 55.1615 39.6889 50.2885 43.4629 48.0515Z" fill="#FAF9FF"/>
<path fill-rule="evenodd" clip-rule="evenodd" d="M43.4258 48.0741C47.1874 45.8162 52.0671 47.0352 54.3249 50.7968L63.9025 66.7528C66.1603 70.5144 64.9413 75.3941 61.1798 77.652C57.4182 79.9098 52.5385 78.6908 50.2806 74.9293L40.7031 58.9732C38.4452 55.2117 39.6642 50.3319 43.4258 48.0741Z" fill="white"/>
<path fill-rule="evenodd" clip-rule="evenodd" d="M70.1647 69.5193L74.4815 76.4721L81.4343 72.1553L88.3872 67.8385L84.0704 60.8857L79.7536 53.9328L72.8008 58.2496L65.8479 62.5664L70.1647 69.5193ZM82.9735 54.686C84.1247 56.5402 84.2732 56.6313 85.2001 56.0558C86.1271 55.4804 86.2756 55.5715 87.4268 57.4257C88.578 59.2799 88.7265 59.371 89.6534 58.7955C90.448 58.3022 90.77 58.3775 91.2634 59.1721C91.7567 59.9667 91.6814 60.2887 90.8868 60.7821C90.0922 61.2754 90.0169 61.5974 90.5102 62.392C91.0035 63.1866 90.9282 63.5086 90.1336 64.002C89.339 64.4953 89.2637 64.8173 89.757 65.6119C90.2504 66.4065 90.5724 66.4818 91.367 65.9885C92.1616 65.4951 92.4836 65.5705 92.9769 66.3651L93.5936 67.3583L97.5667 64.8916L101.54 62.4249L102.156 63.4181L102.773 64.4114L97.8068 67.4948L92.8405 70.5782L92.2238 69.585C91.7304 68.7904 91.4084 68.715 90.6138 69.2084C89.6869 69.7839 89.7027 69.9574 90.8539 71.8116C92.0051 73.6658 92.1536 73.7569 93.0806 73.1815C93.8752 72.6881 94.1972 72.7634 94.6905 73.558C95.1839 74.3526 95.1085 74.6746 94.3139 75.168C93.5193 75.6613 93.444 75.9833 93.9373 76.7779C94.4307 77.5725 94.3554 77.8945 93.5608 78.3879C92.7662 78.8812 92.4442 78.8059 91.9508 78.0113C91.4575 77.2167 91.1355 77.1414 90.3409 77.6347L89.3476 78.2514L91.8143 82.2245L94.2811 86.1975L95.2743 85.5808C96.2012 85.0054 96.1855 84.8319 95.0342 82.9776C93.883 81.1234 93.8672 80.9499 94.7941 80.3744C95.5887 79.8811 95.9107 79.9564 96.4041 80.751C96.8974 81.5456 97.2194 81.6209 98.014 81.1276C98.8086 80.6342 98.884 80.3122 98.3906 79.5176C97.8151 78.5907 97.9062 78.4422 99.7605 77.291C101.615 76.1398 101.788 76.124 102.364 77.0509C102.857 77.8455 102.782 78.1675 101.987 78.6608C101.192 79.1542 101.117 79.4762 101.611 80.2708C102.104 81.0654 102.426 81.1407 103.22 80.6474C104.015 80.154 104.09 79.832 103.597 79.0374C103.022 78.1105 103.113 77.962 104.967 76.8108C106.821 75.6596 106.995 75.6438 107.57 76.5707C108.063 77.3653 108.385 77.4406 109.18 76.9473C110.107 76.3718 110.091 76.1983 108.94 74.3441C107.789 72.4898 107.773 72.3163 108.7 71.7408C109.627 71.1653 109.775 71.2565 110.926 73.1107C112.078 74.9649 112.226 75.056 113.153 74.4805L114.146 73.8638L111.68 69.8908L109.213 65.9177L108.22 66.5344C107.425 67.0278 107.103 66.9524 106.61 66.1578C106.116 65.3632 106.192 65.0412 106.986 64.5479C107.781 64.0545 107.856 63.7325 107.363 62.9379C106.87 62.1433 106.548 62.068 105.753 62.5613C104.826 63.1368 104.677 63.0457 103.526 61.1915C102.375 59.3373 102.227 59.2462 101.3 59.8217C100.505 60.315 100.183 60.2397 99.6897 59.4451C99.1142 58.5182 99.2053 58.3697 101.06 57.2184L103.046 55.9851L101.813 53.9985C100.661 52.1443 100.513 52.0532 99.5861 52.6287C98.7915 53.122 98.7161 53.444 99.2095 54.2386C99.7028 55.0333 99.6275 55.3552 98.8329 55.8486C98.0383 56.3419 97.963 56.6639 98.4563 57.4585C98.9497 58.2532 98.8744 58.5751 98.0797 59.0685C97.2851 59.5618 97.2098 59.8838 97.7032 60.6784C98.1965 61.4731 98.1212 61.795 97.3266 62.2884C96.3997 62.8639 96.2512 62.7728 95.0999 60.9185C93.9487 59.0643 93.9329 58.8908 94.8598 58.3153C95.6545 57.822 95.7298 57.5 95.2364 56.7054C94.7431 55.9108 94.8184 55.5888 95.613 55.0954C96.5399 54.5199 96.5241 54.3464 95.3729 52.4922C94.2217 50.638 94.0732 50.5469 93.1463 51.1224C92.3517 51.6157 92.2763 51.9377 92.7697 52.7323C93.263 53.5269 93.1877 53.8489 92.3931 54.3423C91.5985 54.8356 91.5232 55.1576 92.0165 55.9522C92.5099 56.7468 92.4346 57.0688 91.6399 57.5622C90.713 58.1377 90.5645 58.0465 89.4133 56.1923C88.2621 54.3381 88.2463 54.1646 89.1732 53.5891C90.1001 53.0136 90.0843 52.8401 88.9331 50.9859C87.7819 49.1317 87.6334 49.0406 86.7065 49.616C85.9119 50.1094 85.8365 50.4314 86.3299 51.226C86.8232 52.0206 86.7479 52.3426 85.9533 52.8359C85.1587 53.3293 84.8367 53.254 84.3434 52.4594C83.85 51.6647 83.528 51.5894 82.7334 52.0828C81.8065 52.6583 81.8223 52.8318 82.9735 54.686ZM90.303 48.7593C90.7963 49.5539 91.1183 49.6292 91.9129 49.1358C92.7075 48.6425 92.7828 48.3205 92.2895 47.5259C91.7961 46.7313 91.4741 46.656 90.6795 47.1493C89.8849 47.6427 89.8096 47.9646 90.303 48.7593ZM95.5094 48.2791C97.3182 51.1925 97.3817 51.245 98.3527 50.6422C99.3237 50.0393 99.3048 49.9591 97.4959 47.0457C95.6871 44.1322 95.6236 44.0797 94.6526 44.6826C93.6816 45.2854 93.7005 45.3656 95.5094 48.2791ZM82.0839 62.1191L85.1673 67.0854L80.201 70.1688L75.2346 73.2522L72.1512 68.2859L69.0678 63.3196L74.0341 60.2361L79.0005 57.1527L82.0839 62.1191ZM74.1377 67.0525L75.9878 70.0323L78.9676 68.1823L81.9474 66.3322L80.0973 63.3524L78.2473 60.3726L75.2675 62.2227L72.2877 64.0727L74.1377 67.0525ZM93.7301 63.1452C94.2234 63.9398 94.1481 64.2618 93.3535 64.7551C92.5589 65.2485 92.2369 65.1732 91.7436 64.3785C91.2502 63.5839 91.3255 63.2619 92.1201 62.7686C92.9148 62.2752 93.2368 62.3506 93.7301 63.1452ZM76.3315 79.4519C76.9344 80.4229 77.0146 80.404 79.928 78.5951C82.8415 76.7863 82.9216 76.7673 83.5245 77.7383C84.0178 78.533 83.9425 78.8549 83.1479 79.3483C82.3533 79.8416 82.278 80.1636 82.7713 80.9582C83.2647 81.7529 83.1894 82.0748 82.3947 82.5682C81.6001 83.0615 81.2781 82.9862 80.7848 82.1916C80.2914 81.397 79.9695 81.3217 79.1748 81.815C78.3802 82.3084 78.3049 82.6304 78.7983 83.425C79.2916 84.2196 79.6136 84.2949 80.4082 83.8016C81.2028 83.3082 81.5248 83.3835 82.0182 84.1781C82.5115 84.9728 82.4362 85.2947 81.6416 85.7881C80.847 86.2814 80.7717 86.6034 81.265 87.398C81.7583 88.1927 82.0803 88.268 82.8749 87.7746C83.6696 87.2813 83.7449 86.9593 83.2515 86.1647C82.676 85.2378 82.7671 85.0893 84.6214 83.938C86.4756 82.7868 86.6491 82.771 87.2246 83.6979C87.7179 84.4925 87.6426 84.8145 86.848 85.3079C86.0534 85.8012 85.9781 86.1232 86.4714 86.9178C87.0469 87.8447 86.9558 87.9932 85.1016 89.1445C83.2474 90.2957 83.1562 90.4442 83.7317 91.3711C84.3072 92.298 84.4807 92.2822 86.3349 91.131C88.1892 89.9798 88.2803 89.8313 87.7048 88.9044C87.2114 88.1098 87.2868 87.7878 88.0814 87.2944C88.876 86.8011 89.198 86.8764 89.6913 87.671C90.1847 88.4656 90.5067 88.5409 91.3013 88.0476C92.0959 87.5542 92.1712 87.2322 91.6779 86.4376C91.1845 85.643 90.8625 85.5677 90.0679 86.061C89.2733 86.5544 88.9513 86.4791 88.458 85.6845C87.9646 84.8899 88.0399 84.5679 88.8345 84.0745C89.6292 83.5812 89.7045 83.2592 89.2111 82.4646C88.7178 81.67 88.3958 81.5946 87.6012 82.088C86.8066 82.5813 86.4846 82.506 85.9912 81.7114C85.4979 80.9168 85.5732 80.5948 86.3678 80.1015C87.2947 79.526 87.2789 79.3525 86.1277 77.4982C84.9765 75.644 84.9607 75.4705 85.8876 74.895C86.6822 74.4017 86.7575 74.0797 86.2642 73.2851L85.6475 72.2918L80.6812 75.3752L75.7148 78.4587L76.3315 79.4519ZM105.376 64.1713C105.87 64.9659 105.794 65.2879 105 65.7812C104.205 66.2746 103.883 66.1993 103.39 65.4047C102.896 64.6101 102.972 64.2881 103.766 63.7947C104.561 63.3014 104.883 63.3767 105.376 64.1713ZM101.267 70.8512C102.418 72.7054 102.567 72.7965 103.493 72.221C104.288 71.7277 104.61 71.803 105.103 72.5976C105.597 73.3922 105.521 73.7142 104.727 74.2076C103.932 74.7009 103.61 74.6256 103.117 73.831C102.623 73.0364 102.301 72.9611 101.507 73.4544C100.712 73.9478 100.39 73.8724 99.8969 73.0778C99.4036 72.2832 99.0816 72.2079 98.287 72.7012C97.4924 73.1946 97.1704 73.1193 96.677 72.3247C96.1015 71.3978 96.1927 71.2493 98.0469 70.098L100.033 68.8647L101.267 70.8512ZM107.843 68.1444C108.336 68.939 108.261 69.261 107.466 69.7543C106.672 70.2477 106.35 70.1723 105.857 69.3777C105.363 68.5831 105.438 68.2611 106.233 67.7678C107.028 67.2744 107.35 67.3497 107.843 68.1444Z" fill="#4C4A4F"/>
</svg>
